{
.appVersion = "1230";
copyright = "Copyright 2019 Google Inc. All Rights Reserved.";
customParameters = (
{
name = glyphOrder;
value = (
.notdef,
NULL,
CR,
space,
uni00A0,
uni25CC,
uni2D30,
uni2D31,
uni2D32,
uni2D33,
uni2D34,
uni2D35,
uni2D36,
uni2D37,
uni2D38,
uni2D39,
uni2D3A,
uni2D3B,
uni2D3C,
uni2D3D,
uni2D3E,
uni2D3F,
uni2D40,
uni2D41,
uni2D42,
uni2D43,
uni2D44,
uni2D45,
uni2D46,
uni2D47,
uni2D48,
uni2D49,
uni2D4A,
uni2D4B,
uni2D4C,
uni2D4D,
uni2D4E,
uni2D4F,
uni2D50,
uni2D51,
uni2D52,
uni2D53,
uni2D54,
uni2D55,
uni2D56,
uni2D57,
uni2D58,
uni2D59,
uni2D5A,
uni2D5B,
uni2D5C,
uni2D5D,
uni2D5E,
uni2D5F,
uni2D60,
uni2D61,
uni2D62,
uni2D63,
uni2D64,
uni2D65,
uni2D66,
uni2D67,
uni2D6F,
uni2D70,
uni2D7F,
uni2D4D2D5C,
uni2D402D5C,
uni2D4E2D40,
uni2D4E2D59,
uni2D4E2D5C,
uni2D4F2D40,
uni2D4F2D39,
uni2D4F2D38,
uni2D3C2D5C,
uni2D4F2D3C,
uni2D4F2D36,
uni2D4F2D34,
uni2D4F2D57,
uni2D4F2D4C,
uni2D4F2D3E,
uni2D4F2D59,
uni2D4F2D5C,
uni2D4F2D64,
uni2D542D5C,
uni2D592D4F,
uni2D592D5C,
uni2D5B2D5C,
uni2D5C2D59,
uni2D532D5C,
uni2D622D5C,
uni2D4C2D5C,
uni0301,
uni0302,
uni0304,
uni0306,
uni0307,
hookabovecomb,
uni0323,
uni0331,
uni2D4D2D4D,
uni2D4D2D4F,
uni2D4F2D4D,
uni2D4F2D4F,
uni200C,
uni200D
);
},
{
name = description;
value = "Designed by Monotype design team.";
},
{
name = license;
value = "This Font Software is licensed under the SIL Open Font License, Version 1.1. This Font Software is distributed on an \"AS IS\" BASIS, WITHOUT WARRANTIES OR CONDITIONS OF ANY KIND, either express or implied. See the SIL Open Font License for the specific language, permissions and limitations governing your use of this Font Software.";
},
{
name = licenseURL;
value = "http://scripts.sil.org/OFL";
},
{
name = vendorID;
value = GOOG;
},
{
name = unicodeRanges;
value = (
0,
1,
6,
31,
45,
98
);
},
{
name = trademark;
value = "Noto is a trademark of Google Inc.";
},
{
name = "Has WWS Names";
value = 1;
},
{
name = versionString;
value = "Version 2.000";
},
{
name = fsType;
value = (
);
},
{

glyphs = (
{
glyphname = .notdef;
lastChange = "2017-04-24 18:14:31 +0000";
layers = (
{
layerId = UUID0;
paths = (
{
closed = 1;
nodes = (
"94 0 LINE",
"505 0 LINE",
"505 714 LINE",
"94 714 LINE"
);
},
{
closed = 1;
nodes = (
"145 663 LINE",
"454 663 LINE",
"454 51 LINE",
"145 51 LINE"
);
}
);
width = 600;
}
);
},
{
glyphname = uni25CC;
lastChange = "2017-04-24 18:14:31 +0000";
layers = (
{
layerId = UUID0;
paths = (
{
closed = 1;
nodes = (
"199 522 OFFCURVE",
"187 510 OFFCURVE",
"187 496 CURVE SMOOTH",
"187 482 OFFCURVE",
"199 470 OFFCURVE",
"213 470 CURVE SMOOTH",
"227 470 OFFCURVE",
"239 482 OFFCURVE",
"239 496 CURVE SMOOTH",
"239 510 OFFCURVE",
"227 522 OFFCURVE",
"213 522 CURVE SMOOTH"
);
},
{
closed = 1;
nodes = (
"367 522 OFFCURVE",
"355 510 OFFCURVE",
"355 496 CURVE SMOOTH",
"355 482 OFFCURVE",
"367 470 OFFCURVE",
"381 470 CURVE SMOOTH",
"395 470 OFFCURVE",
"407 482 OFFCURVE",
"407 496 CURVE SMOOTH",
"407 510 OFFCURVE",
"395 522 OFFCURVE",
"381 522 CURVE SMOOTH"
);
},
{
closed = 1;
nodes = (
"199 112 OFFCURVE",
"187 100 OFFCURVE",
"187 86 CURVE SMOOTH",
"187 72 OFFCURVE",
"199 60 OFFCURVE",
"213 60 CURVE SMOOTH",
"227 60 OFFCURVE",
"239 72 OFFCURVE",
"239 86 CURVE SMOOTH",
"239 100 OFFCURVE",
"227 112 OFFCURVE",
"213 112 CURVE SMOOTH"
);
},
{
closed = 1;
nodes = (
"367 112 OFFCURVE",
"355 100 OFFCURVE",
"355 86 CURVE SMOOTH",
"355 72 OFFCURVE",
"367 60 OFFCURVE",
"381 60 CURVE SMOOTH",
"395 60 OFFCURVE",
"407 72 OFFCURVE",
"407 86 CURVE SMOOTH",
"407 100 OFFCURVE",
"395 112 OFFCURVE",
"381 112 CURVE SMOOTH"
);
},
{
closed = 1;
nodes = (
"283 540 OFFCURVE",
"271 528 OFFCURVE",
"271 514 CURVE SMOOTH",
"271 500 OFFCURVE",
"283 488 OFFCURVE",
"297 488 CURVE SMOOTH",
"311 488 OFFCURVE",
"323 500 OFFCURVE",
"323 514 CURVE SMOOTH",
"323 528 OFFCURVE",
"311 540 OFFCURVE",
"297 540 CURVE SMOOTH"
);
},
{
closed = 1;
nodes = (
"283 94 OFFCURVE",
"271 82 OFFCURVE",
"271 68 CURVE SMOOTH",
"271 54 OFFCURVE",
"283 42 OFFCURVE",
"297 42 CURVE SMOOTH",
"311 42 OFFCURVE",
"323 54 OFFCURVE",
"323 68 CURVE SMOOTH",
"323 82 OFFCURVE",
"311 94 OFFCURVE",
"297 94 CURVE SMOOTH"
);
},
{
closed = 1;
nodes = (
"48 277 OFFCURVE",
"60 265 OFFCURVE",
"74 265 CURVE SMOOTH",
"88 265 OFFCURVE",
"100 277 OFFCURVE",
"100 291 CURVE SMOOTH",
"100 305 OFFCURVE",
"88 317 OFFCURVE",
"74 317 CURVE SMOOTH",
"60 317 OFFCURVE",
"48 305 OFFCURVE",
"48 291 CURVE SMOOTH"
);
},
{
closed = 1;
nodes = (
"494 277 OFFCURVE",
"506 265 OFFCURVE",
"520 265 CURVE SMOOTH",
"534 265 OFFCURVE",
"546 277 OFFCURVE",
"546 291 CURVE SMOOTH",
"546 305 OFFCURVE",
"534 317 OFFCURVE",
"520 317 CURVE SMOOTH",
"506 317 OFFCURVE",
"494 305 OFFCURVE",
"494 291 CURVE SMOOTH"
);
},
{
closed = 1;
nodes = (
"113 119 OFFCURVE",
"125 107 OFFCURVE",
"139 107 CURVE SMOOTH",
"153 107 OFFCURVE",
"165 119 OFFCURVE",
"165 133 CURVE SMOOTH",
"165 147 OFFCURVE",
"153 159 OFFCURVE",
"139 159 CURVE SMOOTH",
"125 159 OFFCURVE",
"113 147 OFFCURVE",
"113 133 CURVE SMOOTH"
);
},
{
closed = 1;
nodes = (
"113 435 OFFCURVE",
"125 423 OFFCURVE",
"139 423 CURVE SMOOTH",
"153 423 OFFCURVE",
"165 435 OFFCURVE",
"165 449 CURVE SMOOTH",
"165 463 OFFCURVE",
"153 475 OFFCURVE",
"139 475 CURVE SMOOTH",
"125 475 OFFCURVE",
"113 463 OFFCURVE",
"113 449 CURVE SMOOTH"
);
},
{
closed = 1;
nodes = (
"429 119 OFFCURVE",
"441 107 OFFCURVE",
"455 107 CURVE SMOOTH",
"469 107 OFFCURVE",
"481 119 OFFCURVE",
"481 133 CURVE SMOOTH",
"481 147 OFFCURVE",
"469 159 OFFCURVE",
"455 159 CURVE SMOOTH",
"441 159 OFFCURVE",
"429 147 OFFCURVE",
"429 133 CURVE SMOOTH"
);
},
{
closed = 1;
nodes = (
"429 435 OFFCURVE",
"441 423 OFFCURVE",
"455 423 CURVE SMOOTH",
"469 423 OFFCURVE",
"481 435 OFFCURVE",
"481 449 CURVE SMOOTH",
"481 463 OFFCURVE",
"469 475 OFFCURVE",
"455 475 CURVE SMOOTH",
"441 475 OFFCURVE",
"429 463 OFFCURVE",
"429 449 CURVE SMOOTH"
);
},
{
closed = 1;
nodes = (
"66 193 OFFCURVE",
"78 181 OFFCURVE",
"92 181 CURVE SMOOTH",
"106 181 OFFCURVE",
"118 193 OFFCURVE",
"118 207 CURVE SMOOTH",
"118 221 OFFCURVE",
"106 233 OFFCURVE",
"92 233 CURVE SMOOTH",
"78 233 OFFCURVE",
"66 221 OFFCURVE",
"66 207 CURVE SMOOTH"
);
},
{
closed = 1;
nodes = (
"66 361 OFFCURVE",
"78 349 OFFCURVE",
"92 349 CURVE SMOOTH",
"106 349 OFFCURVE",
"118 361 OFFCURVE",
"118 375 CURVE SMOOTH",
"118 389 OFFCURVE",
"106 401 OFFCURVE",
"92 401 CURVE SMOOTH",
"78 401 OFFCURVE",
"66 389 OFFCURVE",
"66 375 CURVE SMOOTH"
);
},
{
closed = 1;
nodes = (
"476 193 OFFCURVE",
"488 181 OFFCURVE",
"502 181 CURVE SMOOTH",
"516 181 OFFCURVE",
"528 193 OFFCURVE",
"528 207 CURVE SMOOTH",
"528 221 OFFCURVE",
"516 233 OFFCURVE",
"502 233 CURVE SMOOTH",
"488 233 OFFCURVE",
"476 221 OFFCURVE",
"476 207 CURVE SMOOTH"
);
},
{
closed = 1;
nodes = (
"476 361 OFFCURVE",
"488 349 OFFCURVE",
"502 349 CURVE SMOOTH",
"516 349 OFFCURVE",
"528 361 OFFCURVE",
"528 375 CURVE SMOOTH",
"528 389 OFFCURVE",
"516 401 OFFCURVE",
"502 401 CURVE SMOOTH",
"488 401 OFFCURVE",
"476 389 OFFCURVE",
"476 375 CURVE SMOOTH"
);
}
);
width = 594;
}
);
unicode = 25CC;
subCategory = Other;
},
{
glyphname = uni2D30;
lastChange = "2017-04-24 18:14:31 +0000";
layers = (
{
layerId = UUID0;
paths = (
{
closed = 1;
nodes = (
"79 43 OFFCURVE",
"135 -10 OFFCURVE",
"207 -10 CURVE SMOOTH",
"279 -10 OFFCURVE",
"335 45 OFFCURVE",
"335 117 CURVE SMOOTH",
"335 188 OFFCURVE",
"279 245 OFFCURVE",
"207 245 CURVE SMOOTH",
"135 245 OFFCURVE",
"79 190 OFFCURVE",
"79 117 CURVE SMOOTH"
);
},
{
closed = 1;
nodes = (
"149 149 OFFCURVE",
"176 175 OFFCURVE",
"208 175 CURVE SMOOTH",
"239 175 OFFCURVE",
"265 149 OFFCURVE",
"265 117 CURVE SMOOTH",
"265 85 OFFCURVE",
"239 59 OFFCURVE",
"208 59 CURVE SMOOTH",
"177 59 OFFCURVE",
"149 85 OFFCURVE",
"149 117 CURVE SMOOTH"
);
}
);
width = 414;
}
);
unicode = 2D30;
},
{
glyphname = uni2D31;
lastChange = "2017-04-24 18:14:31 +0000";
layers = (
{
layerId = UUID0;
paths = (
{
closed = 1;
nodes = (
"61 157 OFFCURVE",
"220 -10 OFFCURVE",
"427 -10 CURVE SMOOTH",
"637 -10 OFFCURVE",
"795 163 OFFCURVE",
"795 357 CURVE SMOOTH",
"795 560 OFFCURVE",
"628 725 OFFCURVE",
"427 725 CURVE SMOOTH",
"223 725 OFFCURVE",
"61 559 OFFCURVE",
"61 357 CURVE SMOOTH"
);
},
{
closed = 1;
nodes = (
"281 68 OFFCURVE",
"172 180 OFFCURVE",
"152 318 CURVE",
"705 318 LINE",
"684 180 OFFCURVE",
"576 68 OFFCURVE",
"428 68 CURVE SMOOTH"
);
},
{
closed = 1;
nodes = (
"571 647 OFFCURVE",
"685 534 OFFCURVE",
"705 397 CURVE",
"153 397 LINE",
"169 537 OFFCURVE",
"287 647 OFFCURVE",
"428 647 CURVE SMOOTH"
);
}
);
width = 856;
}
);
unicode = 2D31;
},
{
glyphname = uni2D32;
lastChange = "2017-04-24 18:14:31 +0000";
layers = (
{
layerId = UUID0;
paths = (
{
closed = 1;
nodes = (
"61 157 OFFCURVE",
"219 -10 OFFCURVE",
"428 -10 CURVE SMOOTH",
"631 -10 OFFCURVE",
"796 159 OFFCURVE",
"796 357 CURVE SMOOTH",
"796 556 OFFCURVE",
"633 725 OFFCURVE",
"428 725 CURVE SMOOTH",
"220 725 OFFCURVE",
"61 554 OFFCURVE",
"61 357 CURVE SMOOTH"
);
},
{
closed = 1;
nodes = (
"389 318 LINE",
"389 70 LINE",
"262 89 OFFCURVE",
"169 190 OFFCURVE",
"151 318 CURVE"
);
},
{
closed = 1;
nodes = (
"389 397 LINE",
"152 397 LINE",
"170 525 OFFCURVE",
"264 626 OFFCURVE",
"389 644 CURVE"
);
},
{
closed = 1;
nodes = (
"468 318 LINE",
"705 318 LINE",
"687 190 OFFCURVE",
"591 87 OFFCURVE",
"468 71 CURVE"
);
},
{
closed = 1;
nodes = (
"468 397 LINE",
"468 644 LINE",
"589 624 OFFCURVE",
"687 526 OFFCURVE",
"705 397 CURVE"
);
}
);
width = 857;
}
);
unicode = 2D32;
},
{
glyphname = uni2D33;
lastChange = "2017-04-24 18:14:31 +0000";
layers = (
{
layerId = UUID0;
paths = (
{
closed = 1;
nodes = (
"54 669 LINE",
"292 348 LINE",
"34 0 LINE",
"129 0 LINE",
"339 284 LINE",
"550 0 LINE",
"645 0 LINE",
"387 348 LINE",
"625 670 LINE",
"625 714 LINE",
"54 714 LINE"
);
},
{
closed = 1;
nodes = (
"174 635 LINE",
"504 635 LINE",
"339 412 LINE"
);
}
);
width = 679;
}
);
unicode = 2D33;
},
{
glyphname = uni2D34;
lastChange = "2017-04-24 18:14:31 +0000";
layers = (
{
layerId = UUID0;
paths = (
{
closed = 1;
nodes = (
"54 0 LINE",
"625 0 LINE",
"625 44 LINE",
"387 366 LINE",
"645 714 LINE",
"550 714 LINE",
"339 430 LINE",
"129 714 LINE",
"34 714 LINE",
"292 366 LINE",
"54 45 LINE"
);
},
{
closed = 1;
nodes = (
"339 302 LINE",
"504 79 LINE",
"174 79 LINE"
);
}
);
width = 679;
}
);
unicode = 2D34;
},
{
glyphname = uni2D35;
lastChange = "2017-04-24 18:14:31 +0000";
layers = (
{
layerId = UUID0;
paths = (
{
closed = 1;
nodes = (
"34 669 LINE",
"271 357 LINE",
"34 45 LINE",
"34 0 LINE",
"605 0 LINE",
"605 44 LINE",
"366 357 LINE",
"605 670 LINE",
"605 714 LINE",
"34 714 LINE"
);
},
{
closed = 1;
nodes = (
"155 635 LINE",
"483 635 LINE",
"319 419 LINE"
);
},
{
closed = 1;
nodes = (
"319 294 LINE",
"483 79 LINE",
"155 79 LINE"
);
}
);
width = 639;
}
);
unicode = 2D35;
},
{
glyphname = uni2D36;
lastChange = "2017-04-24 18:14:31 +0000";
layers = (
{
layerId = UUID0;
paths = (
{
closed = 1;
nodes = (
"258 714 LINE",
"258 0 LINE",
"347 0 LINE",
"347 714 LINE"
);
},
{
closed = 1;
nodes = (
"50 604 OFFCURVE",
"72 579 OFFCURVE",
"111 579 CURVE SMOOTH",
"151 579 OFFCURVE",
"174 606 OFFCURVE",
"174 647 CURVE SMOOTH",
"174 690 OFFCURVE",
"151 714 OFFCURVE",
"111 714 CURVE SMOOTH",
"72 714 OFFCURVE",
"50 690 OFFCURVE",
"50 647 CURVE SMOOTH"
);
},
{
closed = 1;
nodes = (
"431 603 OFFCURVE",
"453 579 OFFCURVE",
"492 579 CURVE SMOOTH",
"532 579 OFFCURVE",
"555 606 OFFCURVE",
"555 647 CURVE SMOOTH",
"555 690 OFFCURVE",
"532 714 OFFCURVE",
"492 714 CURVE SMOOTH",
"453 714 OFFCURVE",
"431 692 OFFCURVE",
"431 647 CURVE SMOOTH"
);
}
);
width = 605;
}
);
unicode = 2D36;
},
{
glyphname = uni2D37;
lastChange = "2017-04-24 18:14:31 +0000";
layers = (
{
layerId = UUID0;
paths = (
{
closed = 1;
nodes = (
"237 357 OFFCURVE",
"300 543 OFFCURVE",
"304 556 CURVE SMOOTH",
"308 570 OFFCURVE",
"313 584 OFFCURVE",
"316 597 CURVE",
"325 562 OFFCURVE",
"341 513 OFFCURVE",
"362 451 CURVE SMOOTH",
"517 0 LINE",
"601 0 LINE",
"355 714 LINE",
"276 714 LINE",
"30 0 LINE",
"114 0 LINE"
);
}
);
width = 631;
}
);
unicode = 2D37;
},
{
glyphname = uni2D38;
lastChange = "2017-04-24 18:14:31 +0000";
layers = (
{
layerId = UUID0;
paths = (
{
closed = 1;
nodes = (
"304 165 OFFCURVE",
"288 209 OFFCURVE",
"268 268 CURVE SMOOTH",
"114 714 LINE",
"30 714 LINE",
"276 0 LINE",
"355 0 LINE",
"601 714 LINE",
"517 714 LINE",
"335 185 LINE SMOOTH",
"327 161 OFFCURVE",
"321 139 OFFCURVE",
"316 118 CURVE"
);
}
);
width = 631;
}
);
unicode = 2D38;
},
{
glyphname = uni2D39;
lastChange = "2017-04-24 18:14:31 +0000";
layers = (
{
layerId = UUID0;
paths = (
{
closed = 1;
nodes = (
"97 0 LINE",
"587 0 LINE",
"587 79 LINE",
"186 79 LINE",
"186 318 LINE",
"587 318 LINE",
"587 397 LINE",
"186 397 LINE",
"186 635 LINE",
"587 635 LINE",
"587 714 LINE",
"97 714 LINE"
);
}
);
width = 647;
}
);
unicode = 2D39;
},
{
glyphname = uni2D3A;
lastChange = "2017-04-24 18:14:31 +0000";
layers = (
{
layerId = UUID0;
paths = (
{
closed = 1;
nodes = (
"550 714 LINE",
"60 714 LINE",
"60 635 LINE",
"461 635 LINE",
"461 397 LINE",
"60 397 LINE",
"60 318 LINE",
"461 318 LINE",
"461 79 LINE",
"60 79 LINE",
"60 0 LINE",
"550 0 LINE"
);
}
);
width = 647;
}
);
unicode = 2D3A;
},
{
glyphname = uni2D3B;
lastChange = "2017-04-24 18:14:31 +0000";
layers = (
{
layerId = UUID0;
paths = (
{
closed = 1;
nodes = (
"222 523 OFFCURVE",
"278 470 OFFCURVE",
"350 470 CURVE SMOOTH",
"422 470 OFFCURVE",
"478 525 OFFCURVE",
"478 597 CURVE SMOOTH",
"478 668 OFFCURVE",
"422 725 OFFCURVE",
"350 725 CURVE SMOOTH",
"278 725 OFFCURVE",
"222 670 OFFCURVE",
"222 597 CURVE SMOOTH"
);
},
{
closed = 1;
nodes = (
"292 629 OFFCURVE",
"319 655 OFFCURVE",
"351 655 CURVE SMOOTH",
"382 655 OFFCURVE",
"408 629 OFFCURVE",
"408 597 CURVE SMOOTH",
"408 565 OFFCURVE",
"382 539 OFFCURVE",
"351 539 CURVE SMOOTH",
"320 539 OFFCURVE",
"292 565 OFFCURVE",
"292 597 CURVE SMOOTH"
);
},
{
closed = 1;
nodes = (
"222 43 OFFCURVE",
"278 -10 OFFCURVE",
"350 -10 CURVE SMOOTH",
"422 -10 OFFCURVE",
"478 45 OFFCURVE",
"478 117 CURVE SMOOTH",
"478 188 OFFCURVE",
"422 245 OFFCURVE",
"350 245 CURVE SMOOTH",
"278 245 OFFCURVE",
"222 190 OFFCURVE",
"222 117 CURVE SMOOTH"
);
},
{
closed = 1;
nodes = (
"292 149 OFFCURVE",
"319 175 OFFCURVE",
"351 175 CURVE SMOOTH",
"382 175 OFFCURVE",
"408 149 OFFCURVE",
"408 117 CURVE SMOOTH",
"408 85 OFFCURVE",
"382 59 OFFCURVE",
"351 59 CURVE SMOOTH",
"320 59 OFFCURVE",
"292 85 OFFCURVE",
"292 117 CURVE SMOOTH"
);
},
{
closed = 1;
nodes = (
"660 318 LINE",
"660 397 LINE",
"40 397 LINE",
"40 318 LINE"
);
}
);
width = 700;
}
);
unicode = 2D3B;
},
{
glyphname = uni2D3C;
lastChange = "2017-04-24 18:14:31 +0000";
layers = (
{
layerId = UUID0;
paths = (
{
closed = 1;
nodes = (
"734 79 LINE",
"558 79 LINE",
"558 635 LINE",
"734 635 LINE",
"734 714 LINE",
"469 714 LINE",
"469 397 LINE",
"325 397 LINE",
"325 714 LINE",
"60 714 LINE",
"60 635 LINE",
"236 635 LINE",
"236 79 LINE",
"60 79 LINE",
"60 0 LINE",
"325 0 LINE",
"325 318 LINE",
"469 318 LINE",
"469 0 LINE",
"734 0 LINE"
);
}
);
width = 794;
}
);
unicode = 2D3C;
},
{
glyphname = uni2D3D;
lastChange = "2017-04-24 18:14:31 +0000";
layers = (
{
layerId = UUID0;
paths = (
{
closed = 1;
nodes = (
"142 0 LINE",
"376 298 LINE",
"595 0 LINE",
"690 0 LINE",
"426 362 LINE",
"668 670 LINE",
"668 714 LINE",
"97 714 LINE",
"97 0 LINE"
);
},
{
closed = 1;
nodes = (
"546 635 LINE",
"182 165 LINE",
"185 208 OFFCURVE",
"186 263 OFFCURVE",
"186 331 CURVE SMOOTH",
"186 635 LINE"
);
}
);
width = 724;
}
);
unicode = 2D3D;
},
{
glyphname = uni2D3E;
lastChange = "2017-04-24 18:14:31 +0000";
layers = (
{
layerId = UUID0;
paths = (
{
closed = 1;
nodes = (
"60 595 OFFCURVE",
"87 566 OFFCURVE",
"132 566 CURVE SMOOTH",
"177 566 OFFCURVE",
"206 595 OFFCURVE",
"206 646 CURVE SMOOTH",
"206 698 OFFCURVE",
"179 725 OFFCURVE",
"132 725 CURVE SMOOTH",
"85 725 OFFCURVE",
"60 697 OFFCURVE",
"60 646 CURVE SMOOTH"
);
},
{
closed = 1;
nodes = (
"60 19 OFFCURVE",
"87 -10 OFFCURVE",
"132 -10 CURVE SMOOTH",
"179 -10 OFFCURVE",
"206 19 OFFCURVE",
"206 70 CURVE SMOOTH",
"206 121 OFFCURVE",
"179 149 OFFCURVE",
"132 149 CURVE SMOOTH",
"87 149 OFFCURVE",
"60 121 OFFCURVE",
"60 70 CURVE SMOOTH"
);
},
{
closed = 1;
nodes = (
"292 307 OFFCURVE",
"319 278 OFFCURVE",
"364 278 CURVE SMOOTH",
"409 278 OFFCURVE",
"438 307 OFFCURVE",
"438 358 CURVE SMOOTH",
"438 409 OFFCURVE",
"411 437 OFFCURVE",
"364 437 CURVE SMOOTH",
"317 437 OFFCURVE",
"292 409 OFFCURVE",
"292 358 CURVE SMOOTH"
);
}
);
width = 498;
}
);
unicode = 2D3E;
},
{
glyphname = uni2D3F;
lastChange = "2017-04-24 18:14:31 +0000";
layers = (
{
layerId = UUID0;
paths = (
{
closed = 1;
nodes = (
"97 0 LINE",
"668 0 LINE",
"668 44 LINE",
"426 352 LINE",
"690 714 LINE",
"595 714 LINE",
"376 415 LINE",
"142 714 LINE",
"97 714 LINE"
);
},
{
closed = 1;
nodes = (
"545 79 LINE",
"186 79 LINE",
"186 334 LINE SMOOTH",
"186 416 OFFCURVE",
"184 484 OFFCURVE",
"181 539 CURVE"
);
}
);
width = 724;
}
);
unicode = 2D3F;
},
{
glyphname = uni2D40;
lastChange = "2017-04-24 18:14:31 +0000";
layers = (
{
layerId = UUID0;
paths = (
{
closed = 1;
nodes = (
"61 157 OFFCURVE",
"219 -10 OFFCURVE",
"428 -10 CURVE SMOOTH",
"630 -10 OFFCURVE",
"796 158 OFFCURVE",
"796 357 CURVE SMOOTH",
"796 554 OFFCURVE",
"634 725 OFFCURVE",
"428 725 CURVE SMOOTH",
"229 725 OFFCURVE",
"61 563 OFFCURVE",
"61 357 CURVE SMOOTH"
);
},
{
closed = 1;
nodes = (
"149 501 OFFCURVE",
"253 626 OFFCURVE",
"384 643 CURVE",
"384 72 LINE",
"252 91 OFFCURVE",
"149 217 OFFCURVE",
"149 357 CURVE SMOOTH"
);
},
{
closed = 1;
nodes = (
"707 215 OFFCURVE",
"603 90 OFFCURVE",
"473 72 CURVE",
"473 643 LINE",
"606 619 OFFCURVE",
"707 499 OFFCURVE",
"707 357 CURVE SMOOTH"
);
}
);
width = 857;
}
);
unicode = 2D40;
},
{
glyphname = uni2D41;
lastChange = "2017-04-24 18:14:31 +0000";
layers = (
{
layerId = UUID0;
paths = (
{
closed = 1;
nodes = (
"61 271 OFFCURVE",
"88 194 OFFCURVE",
"142 127 CURVE",
"61 46 LINE",
"117 -10 LINE",
"198 71 LINE",
"265 17 OFFCURVE",
"341 -10 OFFCURVE",
"428 -10 CURVE SMOOTH",
"634 -10 OFFCURVE",
"796 160 OFFCURVE",
"796 356 CURVE SMOOTH",
"796 443 OFFCURVE",
"765 524 OFFCURVE",
"714 587 CURVE",
"796 669 LINE",
"740 725 LINE",
"658 643 LINE",
"595 694 OFFCURVE",
"516 725 OFFCURVE",
"428 725 CURVE SMOOTH",
"221 725 OFFCURVE",
"61 557 OFFCURVE",
"61 358 CURVE SMOOTH"
);
},
{
closed = 1;
nodes = (
"707 196 OFFCURVE",
"586 68 OFFCURVE",
"428 68 CURVE SMOOTH",
"365 68 OFFCURVE",
"307 88 OFFCURVE",
"256 129 CURVE",
"654 527 LINE",
"689 476 OFFCURVE",
"707 418 OFFCURVE",
"707 356 CURVE SMOOTH"
);
},
{
closed = 1;
nodes = (
"149 518 OFFCURVE",
"269 647 OFFCURVE",
"427 647 CURVE SMOOTH",
"489 647 OFFCURVE",
"547 626 OFFCURVE",
"600 585 CURVE",
"202 187 LINE",
"167 241 OFFCURVE",
"149 298 OFFCURVE",
"149 357 CURVE SMOOTH"
);
}
);
width = 857;
}
);
unicode = 2D41;
},
{
glyphname = uni2D42;
lastChange = "2017-04-24 18:14:31 +0000";
layers = (
{
layerId = UUID0;
paths = (
{
closed = 1;
nodes = (
"78 211 OFFCURVE",
"102 185 OFFCURVE",
"141 185 CURVE SMOOTH",
"181 185 OFFCURVE",
"207 212 OFFCURVE",
"207 256 CURVE SMOOTH",
"207 301 OFFCURVE",
"182 325 OFFCURVE",
"141 325 CURVE SMOOTH",
"99 325 OFFCURVE",
"78 302 OFFCURVE",
"78 256 CURVE SMOOTH"
);
},
{
closed = 1;
nodes = (
"78 6 OFFCURVE",
"101 -19 OFFCURVE",
"141 -19 CURVE SMOOTH",
"182 -19 OFFCURVE",
"207 7 OFFCURVE",
"207 51 CURVE SMOOTH",
"207 95 OFFCURVE",
"184 121 OFFCURVE",
"141 121 CURVE SMOOTH",
"100 121 OFFCURVE",
"78 95 OFFCURVE",
"78 51 CURVE SMOOTH"
);
},
{
closed = 1;
nodes = (
"78 618 OFFCURVE",
"102 593 OFFCURVE",
"141 593 CURVE SMOOTH",
"181 593 OFFCURVE",
"207 619 OFFCURVE",
"207 663 CURVE SMOOTH",
"207 706 OFFCURVE",
"184 733 OFFCURVE",
"141 733 CURVE SMOOTH",
"100 733 OFFCURVE",
"78 707 OFFCURVE",
"78 663 CURVE SMOOTH"
);
},
{
closed = 1;
nodes = (
"78 414 OFFCURVE",
"101 389 OFFCURVE",
"141 389 CURVE SMOOTH",
"182 389 OFFCURVE",
"207 415 OFFCURVE",
"207 459 CURVE SMOOTH",
"207 503 OFFCURVE",
"182 529 OFFCURVE",
"141 529 CURVE SMOOTH",
"101 529 OFFCURVE",
"78 503 OFFCURVE",
"78 459 CURVE SMOOTH"
);
}
);
width = 285;
}
);
unicode = 2D42;
},
{
glyphname = uni2D43;
lastChange = "2017-04-24 18:14:31 +0000";
layers = (
{
layerId = UUID0;
paths = (
{
closed = 1;
nodes = (
"510 714 LINE",
"34 0 LINE",
"129 0 LINE",
"319 285 LINE",
"510 0 LINE",
"605 0 LINE",
"367 357 LINE",
"605 714 LINE"
);
}
);
width = 639;
}
);
unicode = 2D43;
},
{
glyphname = uni2D44;
lastChange = "2017-04-24 18:14:31 +0000";
layers = (
{
layerId = UUID0;
paths = (
{
closed = 1;
nodes = (
"628 0 LINE",
"628 397 LINE",
"407 397 LINE",
"407 714 LINE",
"318 714 LINE",
"318 397 LINE",
"97 397 LINE",
"97 0 LINE",
"186 0 LINE",
"186 318 LINE",
"539 318 LINE",
"539 0 LINE"
);
}
);
width = 725;
}
);
unicode = 2D44;
},
{
glyphname = uni2D45;
lastChange = "2017-04-24 18:14:31 +0000";
layers = (
{
layerId = UUID0;
paths = (
{
closed = 1;
nodes = (
"34 714 LINE",
"272 357 LINE",
"34 0 LINE",
"129 0 LINE",
"319 285 LINE",
"510 0 LINE",
"605 0 LINE",
"367 357 LINE",
"605 714 LINE",
"510 714 LINE",
"421 581 LINE SMOOTH",
"411 566 OFFCURVE",
"389 529 OFFCURVE",
"355 470 CURVE",
"353 470 LINE",
"357 519 OFFCURVE",
"359 556 OFFCURVE",
"359 582 CURVE SMOOTH",
"359 714 LINE",
"280 714 LINE",
"280 579 LINE SMOOTH",
"280 560 OFFCURVE",
"282 524 OFFCURVE",
"287 470 CURVE",
"285 470 LINE",
"264 508 OFFCURVE",
"241 544 OFFCURVE",
"218 579 CURVE SMOOTH",
"195 614 OFFCURVE",
"166 659 OFFCURVE",
"129 714 CURVE"
);
}
);
width = 639;
}
);
unicode = 2D45;
},
{
glyphname = uni2D46;
lastChange = "2017-04-24 18:14:31 +0000";
layers = (
{
layerId = UUID0;
paths = (
{
closed = 1;
nodes = (
"68 521 OFFCURVE",
"95 492 OFFCURVE",
"140 492 CURVE SMOOTH",
"185 492 OFFCURVE",
"214 523 OFFCURVE",
"214 572 CURVE SMOOTH",
"214 623 OFFCURVE",
"188 651 OFFCURVE",
"140 651 CURVE SMOOTH",
"92 651 OFFCURVE",
"68 623 OFFCURVE",
"68 572 CURVE SMOOTH"
);
},
{
closed = 1;
nodes = (
"68 91 OFFCURVE",
"93 62 OFFCURVE",
"140 62 CURVE SMOOTH",
"188 62 OFFCURVE",
"214 91 OFFCURVE",
"214 142 CURVE SMOOTH",
"214 193 OFFCURVE",
"187 221 OFFCURVE",
"140 221 CURVE SMOOTH",
"93 221 OFFCURVE",
"68 193 OFFCURVE",
"68 142 CURVE SMOOTH"
);
},
{
closed = 1;
nodes = (
"485 521 OFFCURVE",
"512 492 OFFCURVE",
"557 492 CURVE SMOOTH",
"602 492 OFFCURVE",
"631 523 OFFCURVE",
"631 572 CURVE SMOOTH",
"631 623 OFFCURVE",
"605 651 OFFCURVE",
"557 651 CURVE SMOOTH",
"509 651 OFFCURVE",
"485 623 OFFCURVE",
"485 572 CURVE SMOOTH"
);
},
{
closed = 1;
nodes = (
"485 91 OFFCURVE",
"510 62 OFFCURVE",
"557 62 CURVE SMOOTH",
"605 62 OFFCURVE",
"631 91 OFFCURVE",
"631 142 CURVE SMOOTH",
"631 193 OFFCURVE",
"604 221 OFFCURVE",
"557 221 CURVE SMOOTH",
"510 221 OFFCURVE",
"485 193 OFFCURVE",
"485 142 CURVE SMOOTH"
);
}
);
width = 699;
}
);
unicode = 2D46;
},
{
glyphname = uni2D47;
lastChange = "2017-04-24 18:14:31 +0000";
layers = (
{
layerId = UUID0;
paths = (
{
closed = 1;
nodes = (
"97 0 LINE",
"668 0 LINE",
"668 79 LINE",
"234 79 LINE",
"668 670 LINE",
"668 714 LINE",
"97 714 LINE"
);
},
{
closed = 1;
nodes = (
"547 635 LINE",
"180 135 LINE",
"184 206 OFFCURVE",
"186 294 OFFCURVE",
"186 363 CURVE SMOOTH",
"186 635 LINE"
);
}
);
width = 728;
}
);
unicode = 2D47;
},
{
glyphname = uni2D48;
lastChange = "2017-04-24 18:14:31 +0000";
layers = (
{
layerId = UUID0;
paths = (
{
closed = 1;
nodes = (
"309 314 OFFCURVE",
"331 290 OFFCURVE",
"370 290 CURVE SMOOTH",
"410 290 OFFCURVE",
"433 317 OFFCURVE",
"433 358 CURVE SMOOTH",
"433 399 OFFCURVE",
"411 425 OFFCURVE",
"370 425 CURVE SMOOTH",
"329 425 OFFCURVE",
"309 403 OFFCURVE",
"309 358 CURVE SMOOTH"
);
},
{
closed = 1;
nodes = (
"73 315 OFFCURVE",
"95 290 OFFCURVE",
"134 290 CURVE SMOOTH",
"174 290 OFFCURVE",
"197 317 OFFCURVE",
"197 358 CURVE SMOOTH",
"197 399 OFFCURVE",
"175 425 OFFCURVE",
"134 425 CURVE SMOOTH",
"93 425 OFFCURVE",
"73 403 OFFCURVE",
"73 358 CURVE SMOOTH"
);
},
{
closed = 1;
nodes = (
"545 314 OFFCURVE",
"567 290 OFFCURVE",
"606 290 CURVE SMOOTH",
"646 290 OFFCURVE",
"669 317 OFFCURVE",
"669 358 CURVE SMOOTH",
"669 399 OFFCURVE",
"647 425 OFFCURVE",
"606 425 CURVE SMOOTH",
"565 425 OFFCURVE",
"545 403 OFFCURVE",
"545 358 CURVE SMOOTH"
);
}
);
width = 742;
}
);
unicode = 2D48;
},
{
glyphname = uni2D49;
lastChange = "2017-04-24 18:14:31 +0000";
layers = (
{
layerId = UUID0;
paths = (
{
closed = 1;
nodes = (
"417 -10 LINE",
"417 74 LINE",
"268 150 OFFCURVE",
"182 193 OFFCURVE",
"159 204 CURVE",
"203 224 OFFCURVE",
"289 266 OFFCURVE",
"417 331 CURVE",
"417 389 LINE",
"284 459 OFFCURVE",
"233 485 OFFCURVE",
"170 514 CURVE",
"203 529 OFFCURVE",
"286 572 OFFCURVE",
"417 641 CURVE",
"417 725 LINE",
"60 544 LINE",
"60 487 LINE",
"162 434 OFFCURVE",
"218 402 OFFCURVE",
"310 360 CURVE",
"209 311 OFFCURVE",
"191 301 OFFCURVE",
"60 233 CURVE",
"60 176 LINE"
);
}
);
width = 477;
}
);
unicode = 2D49;
},
{
glyphname = uni2D4A;
lastChange = "2017-04-24 18:14:31 +0000";
layers = (
{
layerId = UUID0;
paths = (
{
closed = 1;
nodes = (
"50 635 LINE",
"211 635 LINE",
"211 79 LINE",
"50 79 LINE",
"50 0 LINE",
"461 0 LINE",
"461 79 LINE",
"300 79 LINE",
"300 635 LINE",
"461 635 LINE",
"461 714 LINE",
"50 714 LINE"
);
}
);
width = 511;
}
);
unicode = 2D4A;
},
{
glyphname = uni2D4B;
lastChange = "2017-04-24 18:14:31 +0000";
layers = (
{
layerId = UUID0;
paths = (
{
closed = 1;
nodes = (
"363 65 OFFCURVE",
"460 -10 OFFCURVE",
"567 -10 CURVE",
"567 68 LINE",
"452 68 OFFCURVE",
"358 198 OFFCURVE",
"358 357 CURVE SMOOTH",
"358 514 OFFCURVE",
"448 647 OFFCURVE",
"567 647 CURVE",
"567 725 LINE",
"460 725 OFFCURVE",
"365 651 OFFCURVE",
"314 528 CURVE",
"269 639 OFFCURVE",
"172 725 OFFCURVE",
"60 725 CURVE",
"60 647 LINE",
"174 647 OFFCURVE",
"270 519 OFFCURVE",
"270 357 CURVE SMOOTH",
"270 201 OFFCURVE",
"177 68 OFFCURVE",
"60 68 CURVE",
"60 -10 LINE",
"168 -10 OFFCURVE",
"265 65 OFFCURVE",
"314 185 CURVE"
);
}
);
width = 627;
}
);
unicode = 2D4B;
},
{
glyphname = uni2D4C;
lastChange = "2017-04-24 18:14:31 +0000";
layers = (
{
layerId = UUID0;
paths = (
{
closed = 1;
nodes = (
"739 265 LINE",
"568 265 LINE",
"568 449 LINE",
"739 449 LINE",
"739 528 LINE",
"568 528 LINE",
"568 714 LINE",
"479 714 LINE",
"479 528 LINE",
"305 528 LINE",
"305 714 LINE",
"216 714 LINE",
"216 528 LINE",
"45 528 LINE",
"45 449 LINE",
"216 449 LINE",
"216 265 LINE",
"45 265 LINE",
"45 186 LINE",
"216 186 LINE",
"216 0 LINE",
"305 0 LINE",
"305 186 LINE",
"479 186 LINE",
"479 0 LINE",
"568 0 LINE",
"568 186 LINE",
"739 186 LINE"
);
},
{
closed = 1;
nodes = (
"305 449 LINE",
"479 449 LINE",
"479 265 LINE",
"305 265 LINE"
);
}
);
width = 784;
}
);
unicode = 2D4C;
},
{
glyphname = uni2D4D;
lastChange = "2017-04-24 18:14:31 +0000";
layers = (
{
layerId = UUID0;
paths = (
{
closed = 1;
nodes = (
"350 0 LINE",
"439 0 LINE",
"439 714 LINE",
"350 714 LINE",
"350 617 LINE",
"228 347 LINE SMOOTH",
"214 316 OFFCURVE",
"199 274 OFFCURVE",
"187 239 CURVE",
"184 239 LINE",
"186 300 OFFCURVE",
"187 346 OFFCURVE",
"187 377 CURVE SMOOTH",
"187 714 LINE",
"97 714 LINE",
"97 0 LINE",
"187 0 LINE",
"187 105 LINE",
"313 383 LINE SMOOTH",
"328 416 OFFCURVE",
"339 449 OFFCURVE",
"350 482 CURVE",
"353 482 LINE",
"351 457 OFFCURVE",
"350 426 OFFCURVE",
"350 389 CURVE SMOOTH"
);
}
);
width = 536;
}
);
unicode = 2D4D;
},
{
glyphname = uni2D4E;
lastChange = "2017-04-24 18:14:31 +0000";
layers = (
{
layerId = UUID0;
paths = (
{
closed = 1;
nodes = (
"97 0 LINE",
"587 0 LINE",
"587 79 LINE",
"186 79 LINE",
"186 635 LINE",
"587 635 LINE",
"587 714 LINE",
"97 714 LINE"
);
}
);
width = 647;
}
);
unicode = 2D4E;
},
{
glyphname = uni2D4F;
lastChange = "2017-04-24 18:14:31 +0000";
layers = (
{
layerId = UUID0;
paths = (
{
closed = 1;
nodes = (
"97 714 LINE",
"97 0 LINE",
"186 0 LINE",
"186 714 LINE"
);
}
);
width = 283;
}
);
unicode = 2D4F;
},
{
glyphname = uni2D50;
lastChange = "2017-04-24 18:14:31 +0000";
layers = (
{
layerId = UUID0;
paths = (
{
closed = 1;
nodes = (
"709 295 LINE",
"427 295 LINE",
"427 419 LINE",
"709 419 LINE",
"709 498 LINE",
"427 498 LINE",
"427 714 LINE",
"338 714 LINE",
"338 498 LINE",
"55 498 LINE",
"55 419 LINE",
"338 419 LINE",
"338 295 LINE",
"55 295 LINE",
"55 216 LINE",
"338 216 LINE",
"338 0 LINE",
"427 0 LINE",
"427 216 LINE",
"709 216 LINE"
);
}
);
width = 765;
}
);
unicode = 2D50;
},
{
glyphname = uni2D51;
lastChange = "2017-04-24 18:14:31 +0000";
layers = (
{
layerId = UUID0;
paths = (
{
closed = 1;
nodes = (
"92 714 LINE",
"92 0 LINE",
"181 0 LINE",
"181 714 LINE"
);
},
{
closed = 1;
nodes = (
"84 -155 OFFCURVE",
"105 -176 OFFCURVE",
"136 -176 CURVE SMOOTH",
"167 -176 OFFCURVE",
"188 -155 OFFCURVE",
"188 -120 CURVE SMOOTH",
"188 -81 OFFCURVE",
"164 -64 OFFCURVE",
"136 -64 CURVE SMOOTH",
"108 -64 OFFCURVE",
"84 -81 OFFCURVE",
"84 -120 CURVE SMOOTH"
);
}
);
width = 273;
}
);
unicode = 2D51;
},
{
glyphname = uni2D52;
lastChange = "2017-04-24 18:14:31 +0000";
layers = (
{
layerId = UUID0;
paths = (
{
closed = 1;
nodes = (
"37 68 OFFCURVE",
"129 -10 OFFCURVE",
"276 -10 CURVE SMOOTH",
"420 -10 OFFCURVE",
"515 80 OFFCURVE",
"515 200 CURVE SMOOTH",
"515 325 OFFCURVE",
"422 406 OFFCURVE",
"283 406 CURVE SMOOTH",
"271 406 OFFCURVE",
"259 405 OFFCURVE",
"247 405 CURVE",
"483 643 LINE",
"483 714 LINE",
"71 714 LINE",
"71 636 LINE",
"371 636 LINE",
"153 414 LINE SMOOTH",
"96 355 OFFCURVE",
"37 300 OFFCURVE",
"37 197 CURVE SMOOTH"
);
},
{
closed = 1;
nodes = (
"368 334 OFFCURVE",
"425 275 OFFCURVE",
"425 207 CURVE SMOOTH",
"425 118 OFFCURVE",
"370 64 OFFCURVE",
"277 64 CURVE SMOOTH",
"182 64 OFFCURVE",
"127 114 OFFCURVE",
"127 199 CURVE SMOOTH",
"127 282 OFFCURVE",
"184 334 OFFCURVE",
"277 334 CURVE SMOOTH"
);
}
);
width = 551;
}
);
unicode = 2D52;
},
{
glyphname = uni2D53;
lastChange = "2017-04-24 18:14:31 +0000";
layers = (
{
layerId = UUID0;
paths = (
{
closed = 1;
nodes = (
"79 523 OFFCURVE",
"135 470 OFFCURVE",
"207 470 CURVE SMOOTH",
"279 470 OFFCURVE",
"335 525 OFFCURVE",
"335 597 CURVE SMOOTH",
"335 668 OFFCURVE",
"279 725 OFFCURVE",
"207 725 CURVE SMOOTH",
"135 725 OFFCURVE",
"79 670 OFFCURVE",
"79 597 CURVE SMOOTH"
);
},
{
closed = 1;
nodes = (
"149 629 OFFCURVE",
"176 655 OFFCURVE",
"208 655 CURVE SMOOTH",
"239 655 OFFCURVE",
"265 629 OFFCURVE",
"265 597 CURVE SMOOTH",
"265 565 OFFCURVE",
"239 539 OFFCURVE",
"208 539 CURVE SMOOTH",
"177 539 OFFCURVE",
"149 565 OFFCURVE",
"149 597 CURVE SMOOTH"
);
},
{
closed = 1;
nodes = (
"79 43 OFFCURVE",
"135 -10 OFFCURVE",
"207 -10 CURVE SMOOTH",
"279 -10 OFFCURVE",
"335 45 OFFCURVE",
"335 117 CURVE SMOOTH",
"335 188 OFFCURVE",
"279 245 OFFCURVE",
"207 245 CURVE SMOOTH",
"135 245 OFFCURVE",
"79 190 OFFCURVE",
"79 117 CURVE SMOOTH"
);
},
{
closed = 1;
nodes = (
"149 149 OFFCURVE",
"176 175 OFFCURVE",
"208 175 CURVE SMOOTH",
"239 175 OFFCURVE",
"265 149 OFFCURVE",
"265 117 CURVE SMOOTH",
"265 85 OFFCURVE",
"239 59 OFFCURVE",
"208 59 CURVE SMOOTH",
"177 59 OFFCURVE",
"149 85 OFFCURVE",
"149 117 CURVE SMOOTH"
);
}
);
width = 414;
}
);
unicode = 2D53;
},
{
glyphname = uni2D54;
lastChange = "2017-04-24 18:14:31 +0000";
layers = (
{
layerId = UUID0;
paths = (
{
closed = 1;
nodes = (
"61 158 OFFCURVE",
"220 -10 OFFCURVE",
"428 -10 CURVE SMOOTH",
"629 -10 OFFCURVE",
"796 156 OFFCURVE",
"796 357 CURVE SMOOTH",
"796 554 OFFCURVE",
"636 725 OFFCURVE",
"428 725 CURVE SMOOTH",
"230 725 OFFCURVE",
"61 565 OFFCURVE",
"61 358 CURVE SMOOTH"
);
},
{
closed = 1;
nodes = (
"149 513 OFFCURVE",
"269 647 OFFCURVE",
"428 647 CURVE SMOOTH",
"586 647 OFFCURVE",
"707 512 OFFCURVE",
"707 357 CURVE SMOOTH",
"707 204 OFFCURVE",
"585 68 OFFCURVE",
"428 68 CURVE SMOOTH",
"270 68 OFFCURVE",
"149 203 OFFCURVE",
"149 356 CURVE SMOOTH"
);
}
);
width = 857;
}
);
unicode = 2D54;
},
{
glyphname = uni2D55;
lastChange = "2017-04-24 18:14:31 +0000";
layers = (
{
layerId = UUID0;
paths = (
{
closed = 1;
nodes = (
"796 555 OFFCURVE",
"636 725 OFFCURVE",
"429 725 CURVE SMOOTH",
"227 725 OFFCURVE",
"61 557 OFFCURVE",
"61 359 CURVE SMOOTH",
"61 162 OFFCURVE",
"218 -10 OFFCURVE",
"430 -10 CURVE SMOOTH",
"511 -10 OFFCURVE",
"595 19 OFFCURVE",
"648 63 CURVE",
"739 -29 LINE",
"795 27 LINE",
"706 116 LINE",
"765 184 OFFCURVE",
"796 271 OFFCURVE",
"796 358 CURVE SMOOTH"
);
},
{
closed = 1;
nodes = (
"399 312 LINE",
"589 121 LINE",
"540 86 OFFCURVE",
"487 68 OFFCURVE",
"429 68 CURVE SMOOTH",
"273 68 OFFCURVE",
"149 202 OFFCURVE",
"149 357 CURVE SMOOTH",
"149 511 OFFCURVE",
"270 647 OFFCURVE",
"429 647 CURVE SMOOTH",
"584 647 OFFCURVE",
"707 513 OFFCURVE",
"707 357 CURVE SMOOTH",
"707 287 OFFCURVE",
"686 227 OFFCURVE",
"645 176 CURVE",
"455 368 LINE"
);
}
);
width = 857;
}
);
unicode = 2D55;
},
{
glyphname = uni2D56;
lastChange = "2017-04-24 18:14:31 +0000";
layers = (
{
layerId = UUID0;
paths = (
{
closed = 1;
nodes = (
"539 714 LINE",
"539 377 LINE",
"186 377 LINE",
"186 714 LINE",
"97 714 LINE",
"97 298 LINE",
"318 298 LINE",
"318 0 LINE",
"407 0 LINE",
"407 298 LINE",
"628 298 LINE",
"628 714 LINE"
);
}
);
width = 725;
}
);
unicode = 2D56;
},
{
glyphname = uni2D57;
lastChange = "2017-04-24 18:14:31 +0000";
layers = (
{
layerId = UUID0;
paths = (
{
closed = 1;
nodes = (
"73 308 OFFCURVE",
"100 279 OFFCURVE",
"145 279 CURVE SMOOTH",
"190 279 OFFCURVE",
"219 308 OFFCURVE",
"219 359 CURVE SMOOTH",
"219 410 OFFCURVE",
"192 438 OFFCURVE",
"145 438 CURVE SMOOTH",
"98 438 OFFCURVE",
"73 410 OFFCURVE",
"73 359 CURVE SMOOTH"
);
},
{
closed = 1;
nodes = (
"73 49 OFFCURVE",
"100 20 OFFCURVE",
"145 20 CURVE SMOOTH",
"192 20 OFFCURVE",
"219 49 OFFCURVE",
"219 100 CURVE SMOOTH",
"219 151 OFFCURVE",
"192 179 OFFCURVE",
"145 179 CURVE SMOOTH",
"100 179 OFFCURVE",
"73 151 OFFCURVE",
"73 100 CURVE SMOOTH"
);
},
{
closed = 1;
nodes = (
"73 567 OFFCURVE",
"100 538 OFFCURVE",
"145 538 CURVE SMOOTH",
"192 538 OFFCURVE",
"219 567 OFFCURVE",
"219 618 CURVE SMOOTH",
"219 670 OFFCURVE",
"190 697 OFFCURVE",
"145 697 CURVE SMOOTH",
"100 697 OFFCURVE",
"73 669 OFFCURVE",
"73 618 CURVE SMOOTH"
);
}
);
width = 292;
}
);
unicode = 2D57;
},
{
glyphname = uni2D58;
lastChange = "2017-04-24 18:14:31 +0000";
layers = (
{
layerId = UUID0;
paths = (
{
closed = 1;
nodes = (
"282 309 OFFCURVE",
"309 280 OFFCURVE",
"354 280 CURVE SMOOTH",
"399 280 OFFCURVE",
"428 309 OFFCURVE",
"428 360 CURVE SMOOTH",
"428 411 OFFCURVE",
"401 439 OFFCURVE",
"354 439 CURVE SMOOTH",
"307 439 OFFCURVE",
"282 411 OFFCURVE",
"282 360 CURVE SMOOTH"
);
},
{
closed = 1;
nodes = (
"69 92 OFFCURVE",
"94 61 OFFCURVE",
"141 61 CURVE SMOOTH",
"189 61 OFFCURVE",
"215 92 OFFCURVE",
"215 141 CURVE SMOOTH",
"215 192 OFFCURVE",
"188 220 OFFCURVE",
"141 220 CURVE SMOOTH",
"94 220 OFFCURVE",
"69 192 OFFCURVE",
"69 141 CURVE SMOOTH"
);
},
{
closed = 1;
nodes = (
"69 530 OFFCURVE",
"94 499 OFFCURVE",
"141 499 CURVE SMOOTH",
"189 499 OFFCURVE",
"215 530 OFFCURVE",
"215 579 CURVE SMOOTH",
"215 630 OFFCURVE",
"188 658 OFFCURVE",
"141 658 CURVE SMOOTH",
"94 658 OFFCURVE",
"69 630 OFFCURVE",
"69 579 CURVE SMOOTH"
);
},
{
closed = 1;
nodes = (
"495 90 OFFCURVE",
"522 61 OFFCURVE",
"567 61 CURVE SMOOTH",
"614 61 OFFCURVE",
"641 90 OFFCURVE",
"641 141 CURVE SMOOTH",
"641 192 OFFCURVE",
"614 220 OFFCURVE",
"567 220 CURVE SMOOTH",
"522 220 OFFCURVE",
"495 192 OFFCURVE",
"495 141 CURVE SMOOTH"
);
},
{
closed = 1;
nodes = (
"495 528 OFFCURVE",
"522 499 OFFCURVE",
"567 499 CURVE SMOOTH",
"614 499 OFFCURVE",
"641 528 OFFCURVE",
"641 579 CURVE SMOOTH",
"641 630 OFFCURVE",
"614 658 OFFCURVE",
"567 658 CURVE SMOOTH",
"522 658 OFFCURVE",
"495 630 OFFCURVE",
"495 579 CURVE SMOOTH"
);
}
);
width = 710;
}
);
unicode = 2D58;
},
{
glyphname = uni2D59;
lastChange = "2017-04-24 18:14:31 +0000";
layers = (
{
layerId = UUID0;
paths = (
{
closed = 1;
nodes = (
"348 314 OFFCURVE",
"384 277 OFFCURVE",
"428 277 CURVE SMOOTH",
"473 277 OFFCURVE",
"509 314 OFFCURVE",
"509 357 CURVE SMOOTH",
"509 401 OFFCURVE",
"473 438 OFFCURVE",
"428 438 CURVE SMOOTH",
"384 438 OFFCURVE",
"348 401 OFFCURVE",
"348 357 CURVE SMOOTH"
);
},
{
closed = 1;
nodes = (
"61 158 OFFCURVE",
"220 -10 OFFCURVE",
"428 -10 CURVE SMOOTH",
"629 -10 OFFCURVE",
"796 156 OFFCURVE",
"796 357 CURVE SMOOTH",
"796 554 OFFCURVE",
"636 725 OFFCURVE",
"428 725 CURVE SMOOTH",
"230 725 OFFCURVE",
"61 565 OFFCURVE",
"61 358 CURVE SMOOTH"
);
},
{
closed = 1;
nodes = (
"149 513 OFFCURVE",
"269 647 OFFCURVE",
"428 647 CURVE SMOOTH",
"586 647 OFFCURVE",
"707 512 OFFCURVE",
"707 357 CURVE SMOOTH",
"707 204 OFFCURVE",
"585 68 OFFCURVE",
"428 68 CURVE SMOOTH",
"270 68 OFFCURVE",
"149 203 OFFCURVE",
"149 356 CURVE SMOOTH"
);
}
);
width = 857;
}
);
unicode = 2D59;
},
{
glyphname = uni2D5A;
lastChange = "2017-04-24 18:14:31 +0000";
layers = (
{
layerId = UUID0;
paths = (
{
closed = 1;
nodes = (
"796 445 OFFCURVE",
"765 532 OFFCURVE",
"706 599 CURVE",
"795 688 LINE",
"739 744 LINE",
"648 652 LINE",
"591 697 OFFCURVE",
"510 725 OFFCURVE",
"429 725 CURVE SMOOTH",
"226 725 OFFCURVE",
"61 558 OFFCURVE",
"61 359 CURVE SMOOTH",
"61 164 OFFCURVE",
"221 -10 OFFCURVE",
"429 -10 CURVE SMOOTH",
"636 -10 OFFCURVE",
"796 162 OFFCURVE",
"796 358 CURVE SMOOTH"
);
},
{
closed = 1;
nodes = (
"455 347 LINE",
"645 539 LINE",
"686 488 OFFCURVE",
"707 425 OFFCURVE",
"707 358 CURVE SMOOTH",
"707 202 OFFCURVE",
"582 68 OFFCURVE",
"429 68 CURVE SMOOTH",
"273 68 OFFCURVE",
"149 202 OFFCURVE",
"149 359 CURVE SMOOTH",
"149 514 OFFCURVE",
"272 647 OFFCURVE",
"429 647 CURVE SMOOTH",
"486 647 OFFCURVE",
"540 629 OFFCURVE",
"589 594 CURVE",
"399 403 LINE"
);
}
);
width = 857;
}
);
unicode = 2D5A;
},
{
glyphname = uni2D5B;
lastChange = "2017-04-24 18:14:31 +0000";
layers = (
{
layerId = UUID0;
paths = (
{
closed = 1;
nodes = (
"402 126 OFFCURVE",
"414 94 OFFCURVE",
"438 68 CURVE",
"428 68 LINE SMOOTH",
"271 68 OFFCURVE",
"149 201 OFFCURVE",
"149 357 CURVE SMOOTH",
"149 519 OFFCURVE",
"276 647 OFFCURVE",
"421 647 CURVE SMOOTH",
"437 647 LINE",
"414 619 OFFCURVE",
"402 587 OFFCURVE",
"402 552 CURVE SMOOTH",
"402 469 OFFCURVE",
"468 412 OFFCURVE",
"548 412 CURVE SMOOTH",
"628 412 OFFCURVE",
"696 472 OFFCURVE",
"696 558 CURVE SMOOTH",
"696 665 OFFCURVE",
"597 725 OFFCURVE",
"428 725 CURVE SMOOTH",
"217 725 OFFCURVE",
"61 551 OFFCURVE",
"61 360 CURVE SMOOTH",
"61 160 OFFCURVE",
"218 -10 OFFCURVE",
"428 -10 CURVE SMOOTH",
"601 -10 OFFCURVE",
"696 52 OFFCURVE",
"696 156 CURVE SMOOTH",
"696 237 OFFCURVE",
"630 303 OFFCURVE",
"548 303 CURVE SMOOTH",
"471 303 OFFCURVE",
"402 246 OFFCURVE",
"402 163 CURVE SMOOTH"
);
},
{
closed = 1;
nodes = (
"474 595 OFFCURVE",
"507 627 OFFCURVE",
"548 627 CURVE SMOOTH",
"591 627 OFFCURVE",
"621 595 OFFCURVE",
"621 554 CURVE SMOOTH",
"621 513 OFFCURVE",
"589 480 OFFCURVE",
"548 480 CURVE SMOOTH",
"508 480 OFFCURVE",
"474 513 OFFCURVE",
"474 554 CURVE SMOOTH"
);
},
{
closed = 1;
nodes = (
"474 201 OFFCURVE",
"507 233 OFFCURVE",
"548 233 CURVE SMOOTH",
"591 233 OFFCURVE",
"621 201 OFFCURVE",
"621 160 CURVE SMOOTH",
"621 119 OFFCURVE",
"589 86 OFFCURVE",
"548 86 CURVE SMOOTH",
"508 86 OFFCURVE",
"474 119 OFFCURVE",
"474 160 CURVE SMOOTH"
);
}
);
width = 756;
}
);
unicode = 2D5B;
},
{
glyphname = uni2D5C;
lastChange = "2017-04-24 18:14:31 +0000";
layers = (
{
layerId = UUID0;
paths = (
{
closed = 1;
nodes = (
"469 407 LINE",
"304 407 LINE",
"304 714 LINE",
"215 714 LINE",
"215 407 LINE",
"50 407 LINE",
"50 328 LINE",
"215 328 LINE",
"215 0 LINE",
"304 0 LINE",
"304 328 LINE",
"469 328 LINE"
);
}
);
width = 519;
}
);
unicode = 2D5C;
},
{
glyphname = uni2D5D;
lastChange = "2017-04-24 18:14:31 +0000";
layers = (
{
layerId = UUID0;
paths = (
{
closed = 1;
nodes = (
"510 714 LINE",
"319 428 LINE",
"129 714 LINE",
"34 714 LINE",
"272 357 LINE",
"34 0 LINE",
"129 0 LINE",
"319 285 LINE",
"510 0 LINE",
"605 0 LINE",
"367 357 LINE",
"605 714 LINE"
);
}
);
width = 639;
}
);
unicode = 2D5D;
},
{
glyphname = uni2D5E;
lastChange = "2017-04-24 18:14:31 +0000";
layers = (
{
layerId = UUID0;
paths = (
{
closed = 1;
nodes = (
"402 126 OFFCURVE",
"414 94 OFFCURVE",
"438 68 CURVE",
"428 68 LINE SMOOTH",
"284 68 OFFCURVE",
"163 183 OFFCURVE",
"151 324 CURVE",
"267 324 LINE",
"267 178 LINE",
"339 178 LINE",
"339 324 LINE",
"478 324 LINE",
"478 395 LINE",
"339 395 LINE",
"339 542 LINE",
"267 542 LINE",
"267 395 LINE",
"151 395 LINE",
"168 535 OFFCURVE",
"287 647 OFFCURVE",
"422 647 CURVE SMOOTH",
"437 647 LINE",
"414 619 OFFCURVE",
"402 587 OFFCURVE",
"402 552 CURVE SMOOTH",
"402 469 OFFCURVE",
"468 412 OFFCURVE",
"548 412 CURVE SMOOTH",
"628 412 OFFCURVE",
"696 472 OFFCURVE",
"696 558 CURVE SMOOTH",
"696 665 OFFCURVE",
"596 725 OFFCURVE",
"427 725 CURVE SMOOTH",
"220 725 OFFCURVE",
"61 553 OFFCURVE",
"61 362 CURVE SMOOTH",
"61 156 OFFCURVE",
"220 -10 OFFCURVE",
"428 -10 CURVE SMOOTH",
"601 -10 OFFCURVE",
"696 52 OFFCURVE",
"696 156 CURVE SMOOTH",
"696 237 OFFCURVE",
"630 303 OFFCURVE",
"548 303 CURVE SMOOTH",
"470 303 OFFCURVE",
"402 246 OFFCURVE",
"402 163 CURVE SMOOTH"
);
},
{
closed = 1;
nodes = (
"474 201 OFFCURVE",
"507 233 OFFCURVE",
"548 233 CURVE SMOOTH",
"591 233 OFFCURVE",
"621 201 OFFCURVE",
"621 160 CURVE SMOOTH",
"621 119 OFFCURVE",
"589 86 OFFCURVE",
"548 86 CURVE SMOOTH",
"508 86 OFFCURVE",
"474 119 OFFCURVE",
"474 160 CURVE SMOOTH"
);
},
{
closed = 1;
nodes = (
"474 595 OFFCURVE",
"507 627 OFFCURVE",
"548 627 CURVE SMOOTH",
"591 627 OFFCURVE",
"621 595 OFFCURVE",
"621 554 CURVE SMOOTH",
"621 513 OFFCURVE",
"589 480 OFFCURVE",
"548 480 CURVE SMOOTH",
"508 480 OFFCURVE",
"474 513 OFFCURVE",
"474 554 CURVE SMOOTH"
);
}
);
width = 756;
}
);
unicode = 2D5E;
},
{
glyphname = uni2D5F;
lastChange = "2017-04-24 18:14:31 +0000";
layers = (
{
layerId = UUID0;
paths = (
{
closed = 1;
nodes = (
"97 0 LINE",
"587 0 LINE",
"587 79 LINE",
"186 79 LINE",
"186 318 LINE",
"302 318 LINE",
"302 193 LINE",
"381 193 LINE",
"381 318 LINE",
"506 318 LINE",
"506 397 LINE",
"381 397 LINE",
"381 522 LINE",
"302 522 LINE",
"302 397 LINE",
"186 397 LINE",
"186 635 LINE",
"587 635 LINE",
"587 714 LINE",
"97 714 LINE"
);
}
);
width = 647;
}
);
unicode = 2D5F;
},
{
glyphname = uni2D60;
lastChange = "2017-04-24 18:14:31 +0000";
layers = (
{
layerId = UUID0;
paths = (
{
closed = 1;
nodes = (
"50 0 LINE",
"621 0 LINE",
"621 44 LINE",
"375 714 LINE",
"296 714 LINE",
"50 45 LINE"
);
},
{
closed = 1;
nodes = (
"288 467 LINE",
"309 524 OFFCURVE",
"325 577 OFFCURVE",
"336 627 CURVE",
"346 578 OFFCURVE",
"361 525 OFFCURVE",
"381 470 CURVE SMOOTH",
"523 79 LINE",
"146 79 LINE"
);
}
);
width = 671;
}
);
unicode = 2D60;
},
{
glyphname = uni2D61;
lastChange = "2017-04-24 18:14:31 +0000";
layers = (
{
layerId = UUID0;
paths = (
{
closed = 1;
nodes = (
"97 0 LINE",
"608 0 LINE",
"608 714 LINE",
"519 714 LINE",
"519 79 LINE",
"186 79 LINE",
"186 714 LINE",
"97 714 LINE"
);
}
);
width = 705;
}
);
unicode = 2D61;
},
{
glyphname = uni2D62;
lastChange = "2017-04-24 18:14:31 +0000";
layers = (
{
layerId = UUID0;
paths = (
{
closed = 1;
nodes = (
"333 329 LINE",
"316 316 OFFCURVE",
"303 306 OFFCURVE",
"293 297 CURVE SMOOTH",
"60 90 LINE",
"60 -10 LINE",
"417 309 LINE",
"417 366 LINE",
"232 473 LINE SMOOTH",
"211 485 OFFCURVE",
"186 498 OFFCURVE",
"158 513 CURVE",
"205 533 OFFCURVE",
"252 557 OFFCURVE",
"299 581 CURVE SMOOTH",
"417 641 LINE",
"417 725 LINE",
"60 545 LINE",
"60 488 LINE",
"282 357 LINE SMOOTH",
"297 348 OFFCURVE",
"318 338 OFFCURVE",
"333 330 CURVE"
);
}
);
width = 477;
}
);
unicode = 2D62;
},
{
glyphname = uni2D63;
lastChange = "2017-04-24 18:14:31 +0000";
layers = (
{
layerId = UUID0;
paths = (
{
closed = 1;
nodes = (
"462 426 LINE",
"622 430 OFFCURVE",
"744 553 OFFCURVE",
"776 714 CURVE",
"694 714 LINE",
"662 587 OFFCURVE",
"582 512 OFFCURVE",
"462 503 CURVE",
"462 714 LINE",
"373 714 LINE",
"373 503 LINE",
"250 512 OFFCURVE",
"173 587 OFFCURVE",
"141 714 CURVE",
"60 714 LINE",
"92 552 OFFCURVE",
"204 434 OFFCURVE",
"373 426 CURVE",
"373 288 LINE",
"206 280 OFFCURVE",
"92 164 OFFCURVE",
"60 0 CURVE",
"141 0 LINE",
"173 127 OFFCURVE",
"253 202 OFFCURVE",
"373 211 CURVE",
"373 0 LINE",
"462 0 LINE",
"462 211 LINE",
"582 202 OFFCURVE",
"662 128 OFFCURVE",
"694 0 CURVE",
"776 0 LINE",
"743 165 OFFCURVE",
"622 280 OFFCURVE",
"462 288 CURVE"
);
}
);
width = 836;
}
);
unicode = 2D63;
},
{
glyphname = uni2D64;
lastChange = "2017-04-24 18:14:31 +0000";
layers = (
{
layerId = UUID0;
paths = (
{
closed = 1;
nodes = (
"97 714 LINE",
"97 0 LINE",
"186 0 LINE",
"186 506 LINE SMOOTH",
"186 541 OFFCURVE",
"185 576 OFFCURVE",
"183 610 CURVE",
"209 579 LINE SMOOTH",
"222 564 OFFCURVE",
"269 518 OFFCURVE",
"348 439 CURVE",
"404 495 LINE",
"186 714 LINE"
);
}
);
width = 454;
}
);
unicode = 2D64;
},
{
glyphname = uni2D65;
lastChange = "2017-04-24 18:14:31 +0000";
layers = (
{
layerId = UUID0;
paths = (
{
closed = 1;
nodes = (
"723 323 LINE",
"723 392 LINE",
"462 392 LINE",
"462 456 LINE",
"623 458 OFFCURVE",
"745 571 OFFCURVE",
"776 714 CURVE",
"694 714 LINE",
"662 602 OFFCURVE",
"585 536 OFFCURVE",
"462 528 CURVE",
"462 714 LINE",
"373 714 LINE",
"373 528 LINE",
"250 536 OFFCURVE",
"173 602 OFFCURVE",
"141 714 CURVE",
"60 714 LINE",
"92 563 OFFCURVE",
"209 462 OFFCURVE",
"373 456 CURVE",
"373 392 LINE",
"112 392 LINE",
"112 323 LINE",
"373 323 LINE",
"373 258 LINE",
"210 252 OFFCURVE",
"90 144 OFFCURVE",
"60 0 CURVE",
"141 0 LINE",
"173 111 OFFCURVE",
"250 178 OFFCURVE",
"373 186 CURVE",
"373 0 LINE",
"462 0 LINE",
"462 186 LINE",
"583 178 OFFCURVE",
"662 111 OFFCURVE",
"694 0 CURVE",
"776 0 LINE",
"744 146 OFFCURVE",
"628 250 OFFCURVE",
"462 258 CURVE",
"462 323 LINE"
);
}
);
width = 836;
}
);
unicode = 2D65;
},
{
glyphname = uni2D66;
lastChange = "2017-04-24 18:14:31 +0000";
layers = (
{
layerId = UUID0;
paths = (
{
closed = 1;
nodes = (
"591 -10 LINE",
"591 74 LINE",
"176 281 LINE SMOOTH",
"159 289 OFFCURVE",
"142 297 OFFCURVE",
"125 305 CURVE",
"180 329 OFFCURVE",
"227 352 OFFCURVE",
"267 372 CURVE SMOOTH",
"591 534 LINE",
"591 618 LINE",
"20 333 LINE",
"20 276 LINE"
);
}
);
width = 651;
}
);
unicode = 2D66;
},
{
glyphname = uni2D67;
lastChange = "2017-04-24 18:14:31 +0000";
layers = (
{
layerId = UUID0;
paths = (
{
closed = 1;
nodes = (
"711 397 LINE",
"425 397 LINE",
"425 318 LINE",
"711 318 LINE"
);
},
{
closed = 1;
nodes = (
"60 318 LINE",
"346 318 LINE",
"346 397 LINE",
"60 397 LINE"
);
}
);
width = 771;
}
);
unicode = 2D67;
},
{
glyphname = uni2D6F;
lastChange = "2017-04-24 18:14:31 +0000";
layers = (
{
layerId = UUID0;
paths = (
{
closed = 1;
nodes = (
"278 714 LINE",
"205 714 LINE",
"205 600 LINE",
"104 600 LINE",
"104 714 LINE",
"30 714 LINE",
"30 527 LINE",
"278 527 LINE"
);
}
);
width = 308;
}
);
unicode = 2D6F;
},
{
glyphname = uni2D70;
lastChange = "2017-04-24 18:14:31 +0000";
layers = (
{
layerId = UUID0;
paths = (
{
closed = 1;
nodes = (
"448 -119 OFFCURVE",
"707 204 OFFCURVE",
"749 714 CURVE",
"670 714 LINE",
"629 262 OFFCURVE",
"395 -60 OFFCURVE",
"33 -137 CURVE",
"33 -195 LINE"
);
}
);
width = 769;
}
);
unicode = 2D70;
},
{
glyphname = uni2D7F;
lastChange = "2017-04-24 18:14:31 +0000";
layers = (
{
layerId = UUID0;
paths = (
{
closed = 1;
nodes = (
"-455 -158 OFFCURVE",
"-434 -174 OFFCURVE",
"-405 -174 CURVE SMOOTH",
"-374 -174 OFFCURVE",
"-354 -154 OFFCURVE",
"-354 -119 CURVE SMOOTH",
"-354 -83 OFFCURVE",
"-373 -64 OFFCURVE",
"-405 -64 CURVE SMOOTH",
"-434 -64 OFFCURVE",
"-455 -80 OFFCURVE",
"-455 -119 CURVE SMOOTH"
);
},
{
closed = 1;
nodes = (
"-293 -158 OFFCURVE",
"-271 -174 OFFCURVE",
"-243 -174 CURVE SMOOTH",
"-216 -174 OFFCURVE",
"-192 -158 OFFCURVE",
"-192 -119 CURVE SMOOTH",
"-192 -84 OFFCURVE",
"-210 -64 OFFCURVE",
"-243 -64 CURVE SMOOTH",
"-271 -64 OFFCURVE",
"-293 -80 OFFCURVE",
"-293 -119 CURVE SMOOTH"
);
},
{
closed = 1;
nodes = (
"-131 -158 OFFCURVE",
"-109 -174 OFFCURVE",
"-81 -174 CURVE SMOOTH",
"-53 -174 OFFCURVE",
"-30 -158 OFFCURVE",
"-30 -119 CURVE SMOOTH",
"-30 -80 OFFCURVE",
"-53 -64 OFFCURVE",
"-81 -64 CURVE SMOOTH",
"-109 -64 OFFCURVE",
"-131 -80 OFFCURVE",
"-131 -119 CURVE SMOOTH"
);
},
{
closed = 1;
nodes = (
"31 -158 OFFCURVE",
"53 -174 OFFCURVE",
"81 -174 CURVE SMOOTH",
"112 -174 OFFCURVE",
"132 -154 OFFCURVE",
"132 -119 CURVE SMOOTH",
"132 -83 OFFCURVE",
"113 -64 OFFCURVE",
"81 -64 CURVE SMOOTH",
"53 -64 OFFCURVE",
"31 -80 OFFCURVE",
"31 -119 CURVE SMOOTH"
);
},
{
closed = 1;
nodes = (
"193 -158 OFFCURVE",
"214 -174 OFFCURVE",
"243 -174 CURVE SMOOTH",
"271 -174 OFFCURVE",
"294 -158 OFFCURVE",
"294 -119 CURVE SMOOTH",
"294 -80 OFFCURVE",
"271 -64 OFFCURVE",
"243 -64 CURVE SMOOTH",
"214 -64 OFFCURVE",
"193 -80 OFFCURVE",
"193 -119 CURVE SMOOTH"
);
},
{
closed = 1;
nodes = (
"355 -158 OFFCURVE",
"377 -174 OFFCURVE",
"405 -174 CURVE SMOOTH",
"432 -174 OFFCURVE",
"456 -158 OFFCURVE",
"456 -119 CURVE SMOOTH",
"456 -84 OFFCURVE",
"438 -64 OFFCURVE",
"405 -64 CURVE SMOOTH",
"377 -64 OFFCURVE",
"355 -80 OFFCURVE",
"355 -119 CURVE SMOOTH"
);
}
);
width = 0;
}
);
unicode = 2D7F;
},
{
glyphname = uni2D4D2D5C;
lastChange = "2017-04-24 18:14:31 +0000";
layers = (
{
layerId = UUID0;
paths = (
{
closed = 1;
nodes = (
"73 615 LINE",
"73 83 LINE",
"163 83 LINE",
"163 304 LINE",
"358 304 LINE",
"358 205 LINE",
"448 205 LINE",
"448 304 LINE",
"643 304 LINE",
"643 83 LINE",
"733 83 LINE",
"733 615 LINE",
"643 615 LINE",
"643 383 LINE",
"448 383 LINE",
"448 489 LINE",
"358 489 LINE",
"358 383 LINE",
"163 383 LINE",
"163 615 LINE"
);
}
);
width = 806;
}
);
subCategory = Other;
},
{
glyphname = uni2D402D5C;
lastChange = "2017-04-24 18:14:31 +0000";
layers = (
{
layerId = UUID0;
paths = (
{
closed = 1;
nodes = (
"1177 400 LINE",
"993 400 LINE",
"993 521 LINE",
"903 521 LINE",
"903 400 LINE",
"793 400 LINE",
"771 588 OFFCURVE",
"608 725 OFFCURVE",
"428 725 CURVE SMOOTH",
"218 725 OFFCURVE",
"61 550 OFFCURVE",
"61 357 CURVE SMOOTH",
"61 153 OFFCURVE",
"227 -10 OFFCURVE",
"428 -10 CURVE SMOOTH",
"623 -10 OFFCURVE",
"777 142 OFFCURVE",
"794 321 CURVE",
"903 321 LINE",
"903 188 LINE",
"993 188 LINE",
"993 321 LINE",
"1177 321 LINE"
);
},
{
closed = 1;
nodes = (
"149 502 OFFCURVE",
"255 624 OFFCURVE",
"384 643 CURVE",
"384 72 LINE",
"250 92 OFFCURVE",
"149 217 OFFCURVE",
"149 357 CURVE SMOOTH"
);
},
{
closed = 1;
nodes = (
"707 220 OFFCURVE",
"612 94 OFFCURVE",
"473 72 CURVE",
"473 643 LINE",
"609 619 OFFCURVE",
"707 497 OFFCURVE",
"707 357 CURVE SMOOTH"
);
}
);
width = 1216;
}
);
subCategory = Other;
},
{
glyphname = uni2D4E2D40;
lastChange = "2017-04-24 18:14:31 +0000";
layers = (
{
layerId = UUID0;
paths = (
{
closed = 1;
nodes = (
"97 0 LINE",
"650 0 LINE",
"650 79 LINE",
"186 79 LINE",
"186 635 LINE",
"650 635 LINE",
"650 714 LINE",
"97 714 LINE"
);
},
{
closed = 1;
nodes = (
"233 229 OFFCURVE",
"332 148 OFFCURVE",
"439 148 CURVE SMOOTH",
"544 148 OFFCURVE",
"637 240 OFFCURVE",
"637 350 CURVE SMOOTH",
"637 450 OFFCURVE",
"552 552 OFFCURVE",
"439 552 CURVE SMOOTH",
"322 552 OFFCURVE",
"233 459 OFFCURVE",
"233 350 CURVE SMOOTH"
);
},
{
closed = 1;
nodes = (
"304 407 OFFCURVE",
"342 458 OFFCURVE",
"397 475 CURVE",
"397 225 LINE",
"345 241 OFFCURVE",
"304 287 OFFCURVE",
"304 350 CURVE SMOOTH"
);
},
{
closed = 1;
nodes = (
"566 292 OFFCURVE",
"525 241 OFFCURVE",
"474 224 CURVE",
"474 476 LINE",
"528 458 OFFCURVE",
"566 403 OFFCURVE",
"566 350 CURVE SMOOTH"
);
}
);
width = 710;
}
);
subCategory = Other;
},
{
glyphname = uni2D4E2D59;
lastChange = "2017-04-24 18:14:31 +0000";
layers = (
{
layerId = UUID0;
paths = (
{
closed = 1;
nodes = (
"233 229 OFFCURVE",
"332 148 OFFCURVE",
"439 148 CURVE SMOOTH",
"544 148 OFFCURVE",
"637 240 OFFCURVE",
"637 350 CURVE SMOOTH",
"637 450 OFFCURVE",
"552 552 OFFCURVE",
"439 552 CURVE SMOOTH",
"322 552 OFFCURVE",
"233 459 OFFCURVE",
"233 350 CURVE SMOOTH"
);
},
{
closed = 1;
nodes = (
"304 421 OFFCURVE",
"362 481 OFFCURVE",
"438 481 CURVE SMOOTH",
"511 481 OFFCURVE",
"566 415 OFFCURVE",
"566 350 CURVE SMOOTH",
"566 279 OFFCURVE",
"506 219 OFFCURVE",
"438 219 CURVE SMOOTH",
"368 219 OFFCURVE",
"304 271 OFFCURVE",
"304 350 CURVE SMOOTH"
);
},
{
closed = 1;
nodes = (
"97 0 LINE",
"650 0 LINE",
"650 79 LINE",
"186 79 LINE",
"186 635 LINE",
"650 635 LINE",
"650 714 LINE",
"97 714 LINE"
);
},
{
closed = 1;
nodes = (
"379 316 OFFCURVE",
"406 293 OFFCURVE",
"437 293 CURVE SMOOTH",
"466 293 OFFCURVE",
"492 319 OFFCURVE",
"492 350 CURVE SMOOTH",
"492 377 OFFCURVE",
"468 406 OFFCURVE",
"437 406 CURVE SMOOTH",
"404 406 OFFCURVE",
"379 380 OFFCURVE",
"379 350 CURVE SMOOTH"
);
}
);
width = 710;
}
);
subCategory = Other;
},
{
glyphname = uni2D4E2D5C;
lastChange = "2017-04-24 18:14:31 +0000";
layers = (
{
layerId = UUID0;
paths = (
{
closed = 1;
nodes = (
"639 635 LINE",
"812 635 LINE",
"812 714 LINE",
"639 714 LINE",
"639 811 LINE",
"555 811 LINE",
"555 714 LINE",
"97 714 LINE",
"97 0 LINE",
"587 0 LINE",
"587 79 LINE",
"186 79 LINE",
"186 635 LINE",
"555 635 LINE",
"555 532 LINE",
"639 532 LINE"
);
}
);
width = 860;
}
);
subCategory = Other;
},
{
glyphname = uni2D4F2D40;
lastChange = "2017-04-24 18:14:31 +0000";
layers = (
{
layerId = UUID0;
paths = (
{
closed = 1;
nodes = (
"150 117 LINE",
"218 37 OFFCURVE",
"321 -10 OFFCURVE",
"428 -10 CURVE SMOOTH",
"640 -10 OFFCURVE",
"796 166 OFFCURVE",
"796 357 CURVE SMOOTH",
"796 564 OFFCURVE",
"623 725 OFFCURVE",
"428 725 CURVE SMOOTH",
"218 725 OFFCURVE",
"61 550 OFFCURVE",
"61 357 CURVE SMOOTH",
"61 -146 LINE",
"150 -146 LINE"
);
},
{
closed = 1;
nodes = (
"150 375 LINE SMOOTH",
"156 511 OFFCURVE",
"261 625 OFFCURVE",
"384 643 CURVE",
"384 72 LINE",
"261 90 OFFCURVE",
"150 205 OFFCURVE",
"150 334 CURVE SMOOTH"
);
},
{
closed = 1;
nodes = (
"707 220 OFFCURVE",
"612 94 OFFCURVE",
"473 72 CURVE",
"473 643 LINE",
"609 619 OFFCURVE",
"707 497 OFFCURVE",
"707 357 CURVE SMOOTH"
);
}
);
width = 857;
}
);
subCategory = Other;
},
{
glyphname = uni2D4F2D39;
lastChange = "2017-04-24 18:14:31 +0000";
layers = (
{
layerId = UUID0;
paths = (
{
closed = 1;
nodes = (
"97 0 LINE",
"587 0 LINE",
"587 79 LINE",
"186 79 LINE",
"186 318 LINE",
"587 318 LINE",
"587 397 LINE",
"186 397 LINE",
"186 635 LINE",
"587 635 LINE",
"587 811 LINE",
"503 811 LINE",
"503 714 LINE",
"97 714 LINE"
);
}
);
width = 647;
}
);
subCategory = Other;
},
{
glyphname = uni2D4F2D38;
lastChange = "2017-04-24 18:14:31 +0000";
layers = (
{
layerId = UUID0;
paths = (
{
closed = 1;
nodes = (
"273 811 LINE",
"273 532 LINE",
"357 532 LINE",
"357 811 LINE"
);
},
{
closed = 1;
nodes = (
"304 165 OFFCURVE",
"288 209 OFFCURVE",
"268 268 CURVE SMOOTH",
"114 714 LINE",
"30 714 LINE",
"276 0 LINE",
"355 0 LINE",
"601 714 LINE",
"517 714 LINE",
"335 185 LINE SMOOTH",
"327 161 OFFCURVE",
"321 139 OFFCURVE",
"316 118 CURVE"
);
}
);
width = 631;
}
);
subCategory = Other;
},
{
glyphname = uni2D3C2D5C;
lastChange = "2017-04-24 18:14:31 +0000";
layers = (
{
layerId = UUID0;
paths = (
{
closed = 1;
nodes = (
"488 318 LINE",
"567 318 LINE",
"567 0 LINE",
"832 0 LINE",
"832 79 LINE",
"656 79 LINE",
"656 635 LINE",
"832 635 LINE",
"832 714 LINE",
"567 714 LINE",
"567 397 LINE",
"488 397 LINE",
"488 522 LINE",
"404 522 LINE",
"404 397 LINE",
"325 397 LINE",
"325 714 LINE",
"60 714 LINE",
"60 635 LINE",
"236 635 LINE",
"236 79 LINE",
"60 79 LINE",
"60 0 LINE",
"325 0 LINE",
"325 318 LINE",
"404 318 LINE",
"404 189 LINE",
"488 189 LINE"
);
}
);
width = 892;
}
);
subCategory = Other;
},
{
glyphname = uni2D4F2D3C;
lastChange = "2017-04-24 18:14:31 +0000";
layers = (
{
layerId = UUID0;
paths = (
{
closed = 1;
nodes = (
"703 714 LINE",
"703 528 LINE",
"167 528 LINE",
"167 714 LINE",
"78 714 LINE",
"78 449 LINE",
"390 449 LINE",
"390 265 LINE",
"78 265 LINE",
"78 0 LINE",
"167 0 LINE",
"167 186 LINE",
"703 186 LINE",
"703 0 LINE",
"792 0 LINE",
"792 265 LINE",
"479 265 LINE",
"479 449 LINE",
"792 449 LINE",
"792 714 LINE"
);
}
);
width = 870;
}
);
subCategory = Other;
},
{
glyphname = uni2D4F2D36;
lastChange = "2017-04-24 18:14:31 +0000";
layers = (
{
layerId = UUID0;
paths = (
{
closed = 1;
nodes = (
"258 714 LINE",
"258 0 LINE",
"347 0 LINE",
"564 219 LINE",
"509 275 LINE",
"352 118 OFFCURVE",
"360 124 OFFCURVE",
"344 104 CURVE",
"346 138 OFFCURVE",
"347 172 OFFCURVE",
"347 208 CURVE SMOOTH",
"347 714 LINE"
);
},
{
closed = 1;
nodes = (
"431 604 OFFCURVE",
"454 579 OFFCURVE",
"492 579 CURVE SMOOTH",
"532 579 OFFCURVE",
"555 605 OFFCURVE",
"555 647 CURVE SMOOTH",
"555 690 OFFCURVE",
"532 714 OFFCURVE",
"492 714 CURVE SMOOTH",
"454 714 OFFCURVE",
"431 692 OFFCURVE",
"431 647 CURVE SMOOTH"
);
},
{
closed = 1;
nodes = (
"50 604 OFFCURVE",
"72 579 OFFCURVE",
"111 579 CURVE SMOOTH",
"150 579 OFFCURVE",
"174 605 OFFCURVE",
"174 647 CURVE SMOOTH",
"174 690 OFFCURVE",
"150 714 OFFCURVE",
"111 714 CURVE SMOOTH",
"72 714 OFFCURVE",
"50 690 OFFCURVE",
"50 647 CURVE SMOOTH"
);
}
);
width = 614;
}
);
subCategory = Other;
},
{
glyphname = uni2D4F2D34;
lastChange = "2017-04-24 18:14:31 +0000";
layers = (
{
layerId = UUID0;
paths = (
{
closed = 1;
nodes = (
"297 811 LINE",
"297 557 LINE",
"381 557 LINE",
"381 811 LINE"
);
},
{
closed = 1;
nodes = (
"54 0 LINE",
"625 0 LINE",
"625 44 LINE",
"387 366 LINE",
"645 714 LINE",
"550 714 LINE",
"339 430 LINE",
"129 714 LINE",
"34 714 LINE",
"297 366 LINE",
"54 45 LINE"
);
},
{
closed = 1;
nodes = (
"339 302 LINE",
"504 79 LINE",
"174 79 LINE"
);
}
);
width = 679;
}
);
subCategory = Other;
},
{
glyphname = uni2D4F2D57;
lastChange = "2017-04-24 18:14:31 +0000";
layers = (
{
layerId = UUID0;
paths = (
{
closed = 1;
nodes = (
"258 714 LINE",
"258 0 LINE",
"347 0 LINE",
"347 714 LINE"
);
},
{
closed = 1;
nodes = (
"50 604 OFFCURVE",
"72 579 OFFCURVE",
"111 579 CURVE SMOOTH",
"150 579 OFFCURVE",
"174 605 OFFCURVE",
"174 647 CURVE SMOOTH",
"174 690 OFFCURVE",
"150 714 OFFCURVE",
"111 714 CURVE SMOOTH",
"72 714 OFFCURVE",
"50 690 OFFCURVE",
"50 647 CURVE SMOOTH"
);
},
{
closed = 1;
nodes = (
"431 24 OFFCURVE",
"454 0 OFFCURVE",
"492 0 CURVE SMOOTH",
"532 0 OFFCURVE",
"555 26 OFFCURVE",
"555 68 CURVE SMOOTH",
"555 111 OFFCURVE",
"532 135 OFFCURVE",
"492 135 CURVE SMOOTH",
"454 135 OFFCURVE",
"431 113 OFFCURVE",
"431 68 CURVE SMOOTH"
);
}
);
width = 605;
}
);
subCategory = Other;
},
{
glyphname = uni2D4F2D4C;
lastChange = "2017-04-24 18:14:31 +0000";
layers = (
{
layerId = UUID0;
paths = (
{
closed = 1;
nodes = (
"479 0 LINE",
"568 0 LINE",
"568 449 LINE",
"739 449 LINE",
"739 528 LINE",
"568 528 LINE",
"568 714 LINE",
"479 714 LINE",
"479 528 LINE",
"305 528 LINE",
"305 714 LINE",
"216 714 LINE",
"216 528 LINE",
"45 528 LINE",
"45 449 LINE",
"216 449 LINE",
"216 0 LINE",
"305 0 LINE",
"305 449 LINE",
"479 449 LINE"
);
}
);
width = 784;
}
);
subCategory = Other;
},
{
glyphname = uni2D4F2D3E;
lastChange = "2017-04-24 18:14:31 +0000";
layers = (
{
layerId = UUID0;
paths = (
{
closed = 1;
nodes = (
"212 125 LINE",
"212 571 LINE",
"124 571 LINE",
"124 125 LINE"
);
},
{
closed = 1;
nodes = (
"205 -14 OFFCURVE",
"227 -29 OFFCURVE",
"255 -29 CURVE SMOOTH",
"283 -29 OFFCURVE",
"307 -14 OFFCURVE",
"307 26 CURVE SMOOTH",
"307 65 OFFCURVE",
"283 81 OFFCURVE",
"255 81 CURVE SMOOTH",
"227 81 OFFCURVE",
"205 65 OFFCURVE",
"205 26 CURVE SMOOTH"
);
},
{
closed = 1;
nodes = (
"29 -14 OFFCURVE",
"51 -29 OFFCURVE",
"80 -29 CURVE SMOOTH",
"107 -29 OFFCURVE",
"131 -14 OFFCURVE",
"131 26 CURVE SMOOTH",
"131 65 OFFCURVE",
"107 81 OFFCURVE",
"80 81 CURVE SMOOTH",
"51 81 OFFCURVE",
"29 65 OFFCURVE",
"29 26 CURVE SMOOTH"
);
},
{
closed = 1;
nodes = (
"117 -131 OFFCURVE",
"139 -146 OFFCURVE",
"167 -146 CURVE SMOOTH",
"195 -146 OFFCURVE",
"219 -131 OFFCURVE",
"219 -91 CURVE SMOOTH",
"219 -52 OFFCURVE",
"195 -37 OFFCURVE",
"167 -37 CURVE SMOOTH",
"139 -37 OFFCURVE",
"117 -52 OFFCURVE",
"117 -91 CURVE SMOOTH"
);
},
{
closed = 1;
nodes = (
"205 631 OFFCURVE",
"227 615 OFFCURVE",
"255 615 CURVE SMOOTH",
"283 615 OFFCURVE",
"307 631 OFFCURVE",
"307 670 CURVE SMOOTH",
"307 709 OFFCURVE",
"283 725 OFFCURVE",
"255 725 CURVE SMOOTH",
"227 725 OFFCURVE",
"205 709 OFFCURVE",
"205 670 CURVE SMOOTH"
);
},
{
closed = 1;
nodes = (
"117 748 OFFCURVE",
"139 732 OFFCURVE",
"167 732 CURVE SMOOTH",
"195 732 OFFCURVE",
"219 748 OFFCURVE",
"219 787 CURVE SMOOTH",
"219 827 OFFCURVE",
"195 842 OFFCURVE",
"167 842 CURVE SMOOTH",
"139 842 OFFCURVE",
"117 827 OFFCURVE",
"117 787 CURVE SMOOTH"
);
},
{
closed = 1;
nodes = (
"29 631 OFFCURVE",
"51 615 OFFCURVE",
"80 615 CURVE SMOOTH",
"107 615 OFFCURVE",
"131 631 OFFCURVE",
"131 670 CURVE SMOOTH",
"131 709 OFFCURVE",
"107 725 OFFCURVE",
"80 725 CURVE SMOOTH",
"51 725 OFFCURVE",
"29 709 OFFCURVE",
"29 670 CURVE SMOOTH"
);
}
);
width = 336;
}
);
subCategory = Other;
},
{
glyphname = uni2D4F2D59;
lastChange = "2017-04-24 18:14:31 +0000";
layers = (
{
layerId = UUID0;
paths = (
{
closed = 1;
nodes = (
"317 574 LINE",
"317 131 LINE",
"401 131 LINE",
"401 574 LINE"
);
},
{
closed = 1;
nodes = (
"451 314 OFFCURVE",
"486 277 OFFCURVE",
"531 277 CURVE SMOOTH",
"577 277 OFFCURVE",
"611 315 OFFCURVE",
"611 357 CURVE SMOOTH",
"611 399 OFFCURVE",
"576 438 OFFCURVE",
"531 438 CURVE SMOOTH",
"486 438 OFFCURVE",
"451 401 OFFCURVE",
"451 357 CURVE SMOOTH"
);
},
{
closed = 1;
nodes = (
"61 153 OFFCURVE",
"227 -10 OFFCURVE",
"428 -10 CURVE SMOOTH",
"640 -10 OFFCURVE",
"796 166 OFFCURVE",
"796 357 CURVE SMOOTH",
"796 564 OFFCURVE",
"623 725 OFFCURVE",
"428 725 CURVE SMOOTH",
"218 725 OFFCURVE",
"61 550 OFFCURVE",
"61 357 CURVE SMOOTH"
);
},
{
closed = 1;
nodes = (
"149 522 OFFCURVE",
"280 647 OFFCURVE",
"428 647 CURVE SMOOTH",
"587 647 OFFCURVE",
"707 509 OFFCURVE",
"707 357 CURVE SMOOTH",
"707 193 OFFCURVE",
"577 68 OFFCURVE",
"428 68 CURVE SMOOTH",
"266 68 OFFCURVE",
"149 207 OFFCURVE",
"149 357 CURVE SMOOTH"
);
}
);
width = 857;
}
);
subCategory = Other;
},
{
glyphname = uni2D4F2D5C;
lastChange = "2017-04-24 18:14:31 +0000";
layers = (
{
layerId = UUID0;
paths = (
{
closed = 1;
nodes = (
"630 714 LINE",
"45 714 LINE",
"45 635 LINE",
"293 635 LINE",
"293 0 LINE",
"382 0 LINE",
"382 635 LINE",
"630 635 LINE"
);
}
);
width = 675;
}
);
subCategory = Other;
},
{
glyphname = uni2D4F2D64;
lastChange = "2017-04-24 18:14:31 +0000";
layers = (
{
layerId = UUID0;
paths = (
{
closed = 1;
nodes = (
"763 79 LINE",
"544 297 LINE",
"488 241 LINE",
"566 163 OFFCURVE",
"613 116 OFFCURVE",
"628 103 CURVE SMOOTH",
"659 76 LINE",
"625 78 OFFCURVE",
"590 79 OFFCURVE",
"555 79 CURVE SMOOTH",
"49 79 LINE",
"49 0 LINE",
"763 0 LINE"
);
}
);
width = 812;
}
);
subCategory = Other;
},
{
glyphname = uni2D542D5C;
lastChange = "2017-04-24 18:14:31 +0000";
layers = (
{
layerId = UUID0;
paths = (
{
closed = 1;
nodes = (
"61 153 OFFCURVE",
"227 -10 OFFCURVE",
"428 -10 CURVE SMOOTH",
"626 -10 OFFCURVE",
"780 146 OFFCURVE",
"795 328 CURVE",
"902 328 LINE",
"902 190 LINE",
"992 190 LINE",
"992 328 LINE",
"1167 328 LINE",
"1167 407 LINE",
"992 407 LINE",
"992 523 LINE",
"902 523 LINE",
"902 407 LINE",
"792 407 LINE",
"768 591 OFFCURVE",
"606 725 OFFCURVE",
"428 725 CURVE SMOOTH",
"218 725 OFFCURVE",
"61 550 OFFCURVE",
"61 357 CURVE SMOOTH"
);
},
{
closed = 1;
nodes = (
"149 522 OFFCURVE",
"280 647 OFFCURVE",
"428 647 CURVE SMOOTH",
"587 647 OFFCURVE",
"707 509 OFFCURVE",
"707 357 CURVE SMOOTH",
"707 193 OFFCURVE",
"577 68 OFFCURVE",
"428 68 CURVE SMOOTH",
"266 68 OFFCURVE",
"149 207 OFFCURVE",
"149 357 CURVE SMOOTH"
);
}
);
width = 1196;
}
);
subCategory = Other;
},
{
glyphname = uni2D592D4F;
lastChange = "2017-04-24 18:14:31 +0000";
layers = (
{
layerId = UUID0;
paths = (
{
closed = 1;
nodes = (
"61 173 OFFCURVE",
"201 12 OFFCURVE",
"386 -7 CURVE",
"386 -146 LINE",
"470 -146 LINE",
"470 -7 LINE",
"662 13 OFFCURVE",
"796 180 OFFCURVE",
"796 357 CURVE SMOOTH",
"796 564 OFFCURVE",
"623 725 OFFCURVE",
"428 725 CURVE SMOOTH",
"218 725 OFFCURVE",
"61 550 OFFCURVE",
"61 357 CURVE SMOOTH"
);
},
{
closed = 1;
nodes = (
"149 522 OFFCURVE",
"280 647 OFFCURVE",
"428 647 CURVE SMOOTH",
"587 647 OFFCURVE",
"707 509 OFFCURVE",
"707 357 CURVE SMOOTH",
"707 213 OFFCURVE",
"604 92 OFFCURVE",
"470 71 CURVE",
"470 157 LINE",
"386 157 LINE",
"386 71 LINE",
"244 93 OFFCURVE",
"149 221 OFFCURVE",
"149 357 CURVE SMOOTH"
);
},
{
closed = 1;
nodes = (
"348 314 OFFCURVE",
"383 277 OFFCURVE",
"428 277 CURVE SMOOTH",
"474 277 OFFCURVE",
"509 315 OFFCURVE",
"509 357 CURVE SMOOTH",
"509 399 OFFCURVE",
"474 438 OFFCURVE",
"428 438 CURVE SMOOTH",
"384 438 OFFCURVE",
"348 401 OFFCURVE",
"348 357 CURVE SMOOTH"
);
}
);
width = 857;
}
);
subCategory = Other;
},
{
glyphname = uni2D592D5C;
lastChange = "2017-04-24 18:14:31 +0000";
layers = (
{
layerId = UUID0;
paths = (
{
closed = 1;
nodes = (
"61 153 OFFCURVE",
"227 -10 OFFCURVE",
"428 -10 CURVE SMOOTH",
"626 -10 OFFCURVE",
"780 146 OFFCURVE",
"795 328 CURVE",
"902 328 LINE",
"902 190 LINE",
"992 190 LINE",
"992 328 LINE",
"1167 328 LINE",
"1167 407 LINE",
"992 407 LINE",
"992 523 LINE",
"902 523 LINE",
"902 407 LINE",
"792 407 LINE",
"768 591 OFFCURVE",
"606 725 OFFCURVE",
"428 725 CURVE SMOOTH",
"218 725 OFFCURVE",
"61 550 OFFCURVE",
"61 357 CURVE SMOOTH"
);
},
{
closed = 1;
nodes = (
"149 522 OFFCURVE",
"280 647 OFFCURVE",
"428 647 CURVE SMOOTH",
"587 647 OFFCURVE",
"707 509 OFFCURVE",
"707 357 CURVE SMOOTH",
"707 193 OFFCURVE",
"577 68 OFFCURVE",
"428 68 CURVE SMOOTH",
"266 68 OFFCURVE",
"149 207 OFFCURVE",
"149 357 CURVE SMOOTH"
);
},
{
closed = 1;
nodes = (
"348 314 OFFCURVE",
"383 277 OFFCURVE",
"428 277 CURVE SMOOTH",
"474 277 OFFCURVE",
"509 315 OFFCURVE",
"509 357 CURVE SMOOTH",
"509 399 OFFCURVE",
"474 438 OFFCURVE",
"428 438 CURVE SMOOTH",
"384 438 OFFCURVE",
"348 401 OFFCURVE",
"348 357 CURVE SMOOTH"
);
}
);
width = 1196;
}
);
subCategory = Other;
},
{
glyphname = uni2D5B2D5C;
lastChange = "2017-04-24 18:14:31 +0000";
layers = (
{
layerId = UUID0;
paths = (
{
closed = 1;
nodes = (
"711 324 LINE",
"711 178 LINE",
"783 178 LINE",
"783 324 LINE",
"922 324 LINE",
"922 395 LINE",
"783 395 LINE",
"783 542 LINE",
"711 542 LINE",
"711 395 LINE",
"151 395 LINE",
"169 563 OFFCURVE",
"302 641 OFFCURVE",
"381 642 CURVE",
"371 622 OFFCURVE",
"366 601 OFFCURVE",
"366 577 CURVE SMOOTH",
"366 497 OFFCURVE",
"432 433 OFFCURVE",
"509 433 CURVE SMOOTH",
"592 433 OFFCURVE",
"660 494 OFFCURVE",
"660 579 CURVE SMOOTH",
"660 637 OFFCURVE",
"611 725 OFFCURVE",
"443 725 CURVE SMOOTH",
"200 725 OFFCURVE",
"61 550 OFFCURVE",
"61 357 CURVE SMOOTH",
"61 140 OFFCURVE",
"235 -10 OFFCURVE",
"443 -10 CURVE SMOOTH",
"611 -10 OFFCURVE",
"660 78 OFFCURVE",
"660 137 CURVE SMOOTH",
"660 221 OFFCURVE",
"592 283 OFFCURVE",
"509 283 CURVE SMOOTH",
"432 283 OFFCURVE",
"366 218 OFFCURVE",
"366 138 CURVE SMOOTH",
"366 115 OFFCURVE",
"371 93 OFFCURVE",
"381 73 CURVE",
"305 74 OFFCURVE",
"170 141 OFFCURVE",
"151 324 CURVE"
);
},
{
closed = 1;
nodes = (
"438 616 OFFCURVE",
"470 647 OFFCURVE",
"512 647 CURVE SMOOTH",
"554 647 OFFCURVE",
"585 615 OFFCURVE",
"585 575 CURVE SMOOTH",
"585 533 OFFCURVE",
"552 500 OFFCURVE",
"512 500 CURVE SMOOTH",
"471 500 OFFCURVE",
"438 534 OFFCURVE",
"438 575 CURVE SMOOTH"
);
},
{
closed = 1;
nodes = (
"438 182 OFFCURVE",
"471 215 OFFCURVE",
"512 215 CURVE SMOOTH",
"552 215 OFFCURVE",
"585 182 OFFCURVE",
"585 141 CURVE SMOOTH",
"585 101 OFFCURVE",
"554 68 OFFCURVE",
"512 68 CURVE SMOOTH",
"470 68 OFFCURVE",
"438 100 OFFCURVE",
"438 141 CURVE SMOOTH"
);
}
);
width = 952;
}
);
subCategory = Other;
},
{
glyphname = uni2D5C2D59;
lastChange = "2017-04-24 18:14:31 +0000";
layers = (
{
layerId = UUID0;
paths = (
{
closed = 1;
nodes = (
"411 422 LINE",
"186 422 LINE",
"186 714 LINE",
"97 714 LINE",
"97 0 LINE",
"587 0 LINE",
"587 79 LINE",
"186 79 LINE",
"186 343 LINE",
"411 343 LINE"
);
}
);
width = 647;
}
);
subCategory = Other;
},
{
glyphname = uni2D532D5C;
lastChange = "2017-04-24 18:14:31 +0000";
layers = (
{
layerId = UUID0;
paths = (
{
closed = 1;
nodes = (
"427 331 LINE",
"709 331 LINE",
"709 410 LINE",
"427 410 LINE",
"427 714 LINE",
"338 714 LINE",
"338 410 LINE",
"55 410 LINE",
"55 331 LINE",
"338 331 LINE",
"338 0 LINE",
"427 0 LINE"
);
},
{
closed = 1;
nodes = (
"124 498 OFFCURVE",
"151 469 OFFCURVE",
"196 469 CURVE SMOOTH",
"241 469 OFFCURVE",
"270 499 OFFCURVE",
"270 548 CURVE SMOOTH",
"270 599 OFFCURVE",
"243 627 OFFCURVE",
"196 627 CURVE SMOOTH",
"148 627 OFFCURVE",
"124 599 OFFCURVE",
"124 548 CURVE SMOOTH"
);
},
{
closed = 1;
nodes = (
"495 143 OFFCURVE",
"522 114 OFFCURVE",
"567 114 CURVE SMOOTH",
"613 114 OFFCURVE",
"641 144 OFFCURVE",
"641 193 CURVE SMOOTH",
"641 244 OFFCURVE",
"615 272 OFFCURVE",
"567 272 CURVE SMOOTH",
"520 272 OFFCURVE",
"495 244 OFFCURVE",
"495 193 CURVE SMOOTH"
);
}
);
width = 765;
}
);
subCategory = Other;
},
{
glyphname = uni2D622D5C;
lastChange = "2017-04-24 18:14:31 +0000";
layers = (
{
layerId = UUID0;
paths = (
{
closed = 1;
nodes = (
"281 61 LINE",
"281 -90 LINE",
"365 -90 LINE",
"365 17 LINE",
"417 -10 LINE",
"417 74 LINE",
"365 101 LINE",
"365 198 LINE",
"281 198 LINE",
"281 143 LINE",
"215 177 OFFCURVE",
"174 197 OFFCURVE",
"159 204 CURVE",
"203 224 OFFCURVE",
"289 267 OFFCURVE",
"417 331 CURVE",
"417 389 LINE",
"170 514 LINE",
"203 529 OFFCURVE",
"286 572 OFFCURVE",
"417 641 CURVE",
"417 725 LINE",
"60 544 LINE",
"60 487 LINE",
"169 430 OFFCURVE",
"230 397 OFFCURVE",
"310 360 CURVE",
"60 233 LINE",
"60 176 LINE"
);
}
);
width = 477;
}
);
subCategory = Other;
},
{
glyphname = uni2D4C2D5C;
lastChange = "2017-04-24 18:14:31 +0000";
layers = (
{
layerId = UUID0;
paths = (
{
closed = 1;
nodes = (
"839 192 LINE",
"732 192 LINE",
"732 522 LINE",
"839 522 LINE",
"839 601 LINE",
"732 601 LINE",
"732 714 LINE",
"643 714 LINE",
"643 601 LINE",
"242 601 LINE",
"242 714 LINE",
"152 714 LINE",
"152 601 LINE",
"45 601 LINE",
"45 522 LINE",
"152 522 LINE",
"152 192 LINE",
"45 192 LINE",
"45 113 LINE",
"152 113 LINE",
"152 0 LINE",
"242 0 LINE",
"242 113 LINE",
"643 113 LINE",
"643 0 LINE",
"732 0 LINE",
"732 113 LINE",
"839 113 LINE"
);
},
{
closed = 1;
nodes = (
"487 192 LINE",
"487 319 LINE",
"643 319 LINE",
"643 192 LINE"
);
},
{
closed = 1;
nodes = (
"242 319 LINE",
"398 319 LINE",
"398 192 LINE",
"242 192 LINE"
);
},
{
closed = 1;
nodes = (
"242 522 LINE",
"398 522 LINE",
"398 398 LINE",
"242 398 LINE"
);
},
{
closed = 1;
nodes = (
"643 398 LINE",
"487 398 LINE",
"487 522 LINE",
"643 522 LINE"
);
}
);
width = 884;
}
);
subCategory = Other;
},
{
glyphname = uni0301;
lastChange = "2017-04-24 18:14:31 +0000";
layers = (
{
layerId = UUID0;
paths = (
{
closed = 1;
nodes = (
"-226 606 LINE",
"-167 606 LINE",
"-121 642 OFFCURVE",
"-49 719 OFFCURVE",
"-24 756 CURVE",
"-24 766 LINE",
"-130 766 LINE",
"-153 721 OFFCURVE",
"-196 655 OFFCURVE",
"-226 618 CURVE"
);
}
);
width = 0;
}
);
unicode = 0301;
},
{
glyphname = uni0302;
lastChange = "2017-04-24 18:14:31 +0000";
layers = (
{
layerId = UUID0;
paths = (
{
closed = 1;
nodes = (
"-362 606 LINE",
"-302 606 LINE",
"-267 628 OFFCURVE",
"-231 660 OFFCURVE",
"-195 696 CURVE",
"-159 660 OFFCURVE",
"-121 627 OFFCURVE",
"-86 606 CURVE",
"-24 606 LINE",
"-24 617 LINE",
"-63 655 OFFCURVE",
"-125 721 OFFCURVE",
"-149 766 CURVE",
"-239 766 LINE",
"-265 721 OFFCURVE",
"-325 656 OFFCURVE",
"-362 617 CURVE"
);
}
);
width = 0;
}
);
unicode = 0302;
},
{
glyphname = uni0304;
lastChange = "2017-04-24 18:14:31 +0000";
layers = (
{
layerId = UUID0;
paths = (
{
closed = 1;
nodes = (
"-321 606 LINE",
"-24 606 LINE",
"-24 677 LINE",
"-321 677 LINE"
);
}
);
width = 0;
}
);
unicode = 0304;
},
{
glyphname = uni0306;
lastChange = "2017-04-24 18:14:31 +0000";
layers = (
{
layerId = UUID0;
paths = (
{
closed = 1;
nodes = (
"-86 606 OFFCURVE",
"-32 660 OFFCURVE",
"-24 740 CURVE",
"-80 740 LINE",
"-86 688 OFFCURVE",
"-128 677 OFFCURVE",
"-181 677 CURVE SMOOTH",
"-242 677 OFFCURVE",
"-275 685 OFFCURVE",
"-282 740 CURVE",
"-335 740 LINE",
"-331 658 OFFCURVE",
"-282 606 OFFCURVE",
"-183 606 CURVE SMOOTH"
);
}
);
width = 0;
}
);
unicode = 0306;
},
{
glyphname = uni0307;
lastChange = "2017-04-24 18:14:31 +0000";
layers = (
{
layerId = UUID0;
paths = (
{
closed = 1;
nodes = (
"-127 643 OFFCURVE",
"-104 625 OFFCURVE",
"-76 625 CURVE SMOOTH",
"-48 625 OFFCURVE",
"-24 643 OFFCURVE",
"-24 681 CURVE SMOOTH",
"-24 720 OFFCURVE",
"-48 737 OFFCURVE",
"-76 737 CURVE SMOOTH",
"-104 737 OFFCURVE",
"-127 720 OFFCURVE",
"-127 681 CURVE SMOOTH"
);
}
);
width = 0;
}
);
unicode = 0307;
},
{
glyphname = hookabovecomb;
lastChange = "2017-04-24 18:14:31 +0000";
layers = (
{
associatedMasterId = UUID0;
background = {
anchors = (
{
name = _top;
position = "{-323, 553}";
},
{
name = top;
position = "{-321, 836}";
}
);
components = (
{
name = hook;
}
);
};
components = (
{
alignment = -1;
name = hook;
}
);
layerId = "0A718E2F-231D-484E-9433-16A5230D2CE8";
width = 0;
},
{
associatedMasterId = UUID0;
background = {
anchors = (
{
name = _top;
position = "{-257, 553}";
},
{
name = top;
position = "{-255, 836}";
}
);
components = (
{
name = hook;
}
);
};
components = (
{
alignment = -1;
name = hook;
}
);
layerId = "98E204A9-1C79-49C7-AB3E-40A925F56409";
width = 0;
},
{
associatedMasterId = UUID0;
background = {
anchors = (
{
name = _top;
position = "{-293, 536}";
},
{
name = top;
position = "{-291, 821}";
}
);
components = (
{
name = hook;
}
);
};
layerId = "9FF96064-8718-4A86-A5C8-73C592101F67";
paths = (
{
closed = 1;
nodes = (
"-192 792 OFFCURVE",
"-238 821 OFFCURVE",
"-318 821 CURVE SMOOTH",
"-343 821 OFFCURVE",
"-361 819 OFFCURVE",
"-373 815 CURVE",
"-373 763 LINE",
"-362 765 OFFCURVE",
"-343 767 OFFCURVE",
"-325 767 CURVE SMOOTH",
"-288 767 OFFCURVE",
"-260 759 OFFCURVE",
"-260 727 CURVE SMOOTH",
"-260 696 OFFCURVE",
"-291 683 OFFCURVE",
"-339 675 CURVE",
"-332 590 LINE",
"-278 590 LINE",
"-273 643 LINE",
"-227 654 OFFCURVE",
"-192 679 OFFCURVE",
"-192 730 CURVE SMOOTH"
);
}
);
width = 0;
},
{
associatedMasterId = UUID0;
background = {
anchors = (
{
name = _top;
position = "{-293, 546}";
},
{
name = top;
position = "{-291, 830}";
}
);
components = (
{
name = hook;
}
);
};
layerId = "134B12F2-BF5D-48E3-8003-C7502B438C7E";
paths = (
{
closed = 1;
nodes = (
"-172 792 OFFCURVE",
"-218 830 OFFCURVE",
"-308 830 CURVE SMOOTH",
"-340 830 OFFCURVE",
"-375 825 OFFCURVE",
"-394 819 CURVE",
"-394 737 LINE",
"-373 743 OFFCURVE",
"-352 748 OFFCURVE",
"-326 748 CURVE SMOOTH",
"-304 748 OFFCURVE",
"-289 737 OFFCURVE",
"-289 716 CURVE SMOOTH",
"-289 692 OFFCURVE",
"-303 675 OFFCURVE",
"-352 667 CURVE",
"-341 595 LINE",
"-256 595 LINE",
"-251 630 LINE",
"-199 643 OFFCURVE",
"-172 676 OFFCURVE",
"-172 726 CURVE SMOOTH"
);
}
);
width = 0;
},
{
associatedMasterId = UUID0;
background = {
anchors = (
{
name = _top;
position = "{-284, 537}";
},
{
name = top;
position = "{-282, 823}";
}
);
components = (
{
name = hook;
}
);
};
components = (
{
alignment = -1;
name = hook;
}
);
layerId = "36F3C8CB-53EE-4548-BFDE-2C03212BACAA";
width = 0;
},
{
associatedMasterId = UUID0;
background = {
anchors = (
{
name = _top;
position = "{-267, 547}";
},
{
name = top;
position = "{-265, 831}";
}
);
components = (
{
name = hook;
}
);
};
components = (
{
alignment = -1;
name = hook;
}
);
layerId = "43B45EC1-5522-4B1A-B0C7-88628E50A583";
width = 0;
},
{
layerId = UUID0;
paths = (
{
closed = 1;
nodes = (
"-112 792 OFFCURVE",
"-158 821 OFFCURVE",
"-238 821 CURVE SMOOTH",
"-263 821 OFFCURVE",
"-281 819 OFFCURVE",
"-293 815 CURVE",
"-293 763 LINE",
"-282 765 OFFCURVE",
"-263 767 OFFCURVE",
"-245 767 CURVE SMOOTH",
"-208 767 OFFCURVE",
"-180 759 OFFCURVE",
"-180 727 CURVE SMOOTH",
"-180 696 OFFCURVE",
"-211 683 OFFCURVE",
"-259 675 CURVE",
"-252 590 LINE",
"-198 590 LINE",
"-193 643 LINE",
"-147 654 OFFCURVE",
"-112 679 OFFCURVE",
"-112 730 CURVE SMOOTH"
);
}
);
width = 0;
},
{
associatedMasterId = UUID0;
background = {
anchors = (
{
name = _top;
position = "{-287, 527}";
},
{
name = top;
position = "{-287, 817}";
}
);
components = (
{
name = hook;
transform = "{1, 0, 0, 1, 4, 0}";
}
);
};
components = (
{
alignment = -1;
name = hook;
transform = "{1, 0, 0, 1, 4, 0}";
}
);
layerId = "029FEF0C-5FA4-4A3E-AC23-838A1147A554";
width = 0;
}
);
unicode = 0309;
},
{
glyphname = uni0323;
lastChange = "2017-04-24 18:14:31 +0000";
layers = (
{
layerId = UUID0;
paths = (
{
closed = 1;
nodes = (
"-202 -158 OFFCURVE",
"-178 -176 OFFCURVE",
"-149 -176 CURVE SMOOTH",
"-122 -176 OFFCURVE",
"-98 -158 OFFCURVE",
"-98 -120 CURVE SMOOTH",
"-98 -81 OFFCURVE",
"-122 -64 OFFCURVE",
"-149 -64 CURVE SMOOTH",
"-178 -64 OFFCURVE",
"-202 -81 OFFCURVE",
"-202 -120 CURVE SMOOTH"
);
}
);
width = 0;
}
);
unicode = 0323;
},
{
glyphname = uni0331;
lastChange = "2017-04-24 18:14:31 +0000";
layers = (
{
layerId = UUID0;
paths = (
{
closed = 1;
nodes = (
"-391 -146 LINE",
"-94 -146 LINE",
"-94 -75 LINE",
"-391 -75 LINE"
);
}
);
width = 0;
}
);
unicode = 0331;
},
{
glyphname = uni2D4D2D4D;
lastChange = "2017-04-24 18:14:31 +0000";
layers = (
{
layerId = UUID0;
paths = (
{
closed = 1;
nodes = (
"350 714 LINE",
"350 617 LINE",
"228 347 LINE SMOOTH",
"214 316 OFFCURVE",
"199 273 OFFCURVE",
"187 239 CURVE",
"184 239 LINE",
"186 299 OFFCURVE",
"187 345 OFFCURVE",
"187 377 CURVE SMOOTH",
"187 714 LINE",
"97 714 LINE",
"97 0 LINE",
"187 0 LINE",
"187 105 LINE",
"335 438 LINE",
"350 482 LINE",
"353 482 LINE",
"351 458 OFFCURVE",
"350 427 OFFCURVE",
"350 389 CURVE SMOOTH",
"350 0 LINE",
"439 0 LINE",
"439 714 LINE"
);
},
{
closed = 1;
nodes = (
"487 680 LINE",
"641 0 LINE",
"728 0 LINE",
"570 694 LINE"
);
},
{
closed = 1;
nodes = (
"643 699 LINE",
"802 0 LINE",
"889 0 LINE",
"726 714 LINE"
);
}
);
width = 962;
}
);
subCategory = Other;
},
{
glyphname = uni2D4D2D4F;
lastChange = "2017-04-24 18:14:31 +0000";
layers = (
{
layerId = UUID0;
paths = (
{
closed = 1;
nodes = (
"350 714 LINE",
"350 617 LINE",
"228 347 LINE SMOOTH",
"214 316 OFFCURVE",
"199 273 OFFCURVE",
"187 239 CURVE",
"184 239 LINE",
"186 299 OFFCURVE",
"187 345 OFFCURVE",
"187 377 CURVE SMOOTH",
"187 714 LINE",
"97 714 LINE",
"97 0 LINE",
"187 0 LINE",
"187 105 LINE",
"335 438 LINE",
"350 482 LINE",
"353 482 LINE",
"351 458 OFFCURVE",
"350 427 OFFCURVE",
"350 389 CURVE SMOOTH",
"350 0 LINE",
"439 0 LINE",
"439 714 LINE"
);
},
{
closed = 1;
nodes = (
"487 680 LINE",
"641 0 LINE",
"728 0 LINE",
"570 694 LINE"
);
}
);
width = 801;
}
);
subCategory = Other;
},
{
glyphname = uni2D4F2D4D;
lastChange = "2017-04-24 18:14:31 +0000";
layers = (
{
layerId = UUID0;
paths = (
{
closed = 1;
nodes = (
"234 680 LINE",
"388 0 LINE",
"475 0 LINE",
"317 694 LINE"
);
},
{
closed = 1;
nodes = (
"390 699 LINE",
"549 0 LINE",
"636 0 LINE",
"473 714 LINE"
);
},
{
closed = 1;
nodes = (
"97 714 LINE",
"97 0 LINE",
"186 0 LINE",
"186 714 LINE"
);
}
);
width = 709;
}
);
subCategory = Other;
},
{
glyphname = uni2D4F2D4F;
lastChange = "2017-04-24 18:14:31 +0000";
layers = (
{
layerId = UUID0;
paths = (
{
closed = 1;
nodes = (
"234 680 LINE",
"388 0 LINE",
"475 0 LINE",
"317 694 LINE"
);
},
{
closed = 1;
nodes = (
"97 714 LINE",
"97 0 LINE",
"186 0 LINE",
"186 714 LINE"
);
}
);
width = 548;
}
);
subCategory = Other;
},
{
glyphname = uni200C;
lastChange = "2017-04-24 18:14:31 +0000";
layers = (
{
layerId = UUID0;
paths = (
{
closed = 1;
nodes = (
"21 -133 LINE",
"21 628 LINE",
"-21 628 LINE",
"-21 -133 LINE"
);
}
);
width = 0;
}
);
unicode = 200C;
},
{
glyphname = uni200D;
lastChange = "2017-04-24 18:14:31 +0000";
layers = (
{
layerId = UUID0;
paths = (
{
closed = 1;
nodes = (
"21 -133 LINE",
"21 535 LINE",
"83 473 LINE",
"109 500 LINE",
"27 582 LINE",
"109 663 LINE",
"83 690 LINE",
"0 607 LINE",
"-83 690 LINE",
"-109 663 LINE",
"-27 582 LINE",
"-109 500 LINE",
"-83 473 LINE",
"-21 535 LINE",
"-21 -133 LINE"
);
}
